<?xml version="1.0" encoding="utf-8"?>
<!-- Generator: Adobe Illustrator 18.0.0, SVG Export Plug-In . SVG Version: 6.00 Build 0)  -->
<!DOCTYPE svg PUBLIC "-//W3C//DTD SVG 1.1//EN" "http://www.w3.org/Graphics/SVG/1.1/DTD/svg11.dtd">
<svg version="1.1" id="Layer_1" xmlns="http://www.w3.org/2000/svg" xmlns:xlink="http://www.w3.org/1999/xlink" x="0px" y="0px"
	 viewBox="0 0 400.5 289.3" enable-background="new 0 0 400.5 289.3" xml:space="preserve">
<rect x="-0.1" y="0" fill="#FFFFFF" width="400.6" height="289.2"/>
<g>
	<rect x="164" y="93.7" fill="#FFFFFF" width="72.8" height="72.8"/>
	<g>
		<path fill="#231F20" d="M180.4,104c-0.8-0.3-2.2-0.4-4.1-0.4h-0.9v10.7h1.5c1.8,0,3.1-0.1,3.8-0.3c1-0.3,1.8-0.9,2.3-1.7
			c0.6-0.8,0.9-1.9,0.9-3.1c0-1.3-0.3-2.4-0.9-3.3C182.4,105,181.5,104.4,180.4,104z"/>
		<path fill="#231F20" d="M223.5,113.1c0.3-0.4,0.4-0.8,0.4-1.3c0-0.6-0.2-1.1-0.6-1.5c-0.4-0.4-0.9-0.7-1.6-0.9
			c-0.4-0.1-1.2-0.2-2.3-0.2h-0.7v5.1h1.6c1,0,1.7-0.1,2.1-0.3C222.9,113.8,223.3,113.5,223.5,113.1z"/>
		<path fill="#231F20" d="M221.5,107.6c0.4-0.2,0.8-0.4,1-0.8c0.3-0.4,0.4-0.8,0.4-1.2c0-0.6-0.2-1.1-0.6-1.4
			c-0.4-0.3-1.1-0.5-2-0.5h-1.5v4.2h0.8C220.4,107.9,221,107.8,221.5,107.6z"/>
		<path fill="#231F20" d="M158.5,88.2v83.3h83.3V88.2H158.5z M217.4,102.4h2.6c1,0,1.9,0.1,2.4,0.4c0.6,0.2,1,0.6,1.3,1.1
			s0.5,1.1,0.5,1.7c0,0.6-0.1,1.1-0.4,1.6c-0.3,0.5-0.7,0.9-1.3,1.2c0.7,0.2,1.2,0.5,1.6,0.8c0.4,0.3,0.7,0.7,0.9,1.1
			c0.2,0.4,0.3,0.9,0.3,1.4c0,1.1-0.4,2-1.2,2.7c-0.8,0.7-1.8,1.1-3.1,1.1h-3.6V102.4z M181.3,152.7c0,1.4-0.1,2.3-0.3,2.9
			c-0.2,0.5-0.6,1-1.1,1.3c-0.5,0.3-1.1,0.5-1.8,0.5c-0.5,0-1.1-0.1-1.6-0.3c-0.5-0.2-1.1-0.6-1.7-1.1l0.7-1.1
			c0.7,0.5,1.3,0.8,1.7,1c0.3,0.1,0.6,0.2,0.9,0.2c0.4,0,0.7-0.1,1-0.3c0.3-0.2,0.5-0.5,0.6-0.9c0.1-0.4,0.2-1.1,0.2-2.2v-8.9h1.3
			V152.7z M184.4,112.6c-0.6,1-1.3,1.7-2.2,2.2c-0.9,0.5-2.2,0.7-3.8,0.7h-4.2v-13.2h2.7c2,0,3.4,0.2,4.3,0.5c1.3,0.4,2.3,1.2,3,2.3
			c0.7,1.1,1.1,2.4,1.1,4C185.3,110.4,185,111.6,184.4,112.6z M225.9,155.5c-1.2,1.2-2.8,1.8-4.8,1.8c-2.4,0-4.4-0.8-5.8-2.5
			c-1.1-1.3-1.6-2.8-1.6-4.4c0-1.3,0.3-2.4,0.9-3.5c0.6-1.1,1.5-1.9,2.6-2.5c1.1-0.6,2.3-0.9,3.7-0.9c1.1,0,2.2,0.2,3.2,0.6
			c1,0.4,1.9,1.1,2.9,1.9l-1,1c-0.7-0.7-1.5-1.3-2.4-1.6c-0.9-0.4-1.7-0.6-2.6-0.6c-1,0-2,0.3-3,0.8c-0.9,0.5-1.7,1.2-2.2,2.1
			c-0.5,0.9-0.8,1.8-0.8,2.8c0,1,0.3,1.9,0.8,2.8c0.5,0.9,1.3,1.6,2.2,2.1c0.9,0.5,2,0.8,3.1,0.8c1.4,0,2.5-0.4,3.4-1.1
			c0.9-0.8,1.5-1.8,1.7-3H222v-1.3h5.7C227.7,152.7,227.1,154.3,225.9,155.5z"/>
	</g>
	<polygon fill="#EC1C24" points="234,129.6 200.4,129.6 200.4,96 199.9,96 199.9,129.6 166.3,129.6 166.3,130.1 199.9,130.1 
		199.9,163.7 200.4,163.7 200.4,130.1 234,130.1 	"/>
	<g>
		<g>
			<path fill="#A6A8AB" d="M62.6,192.4h2.5c2,0,3.4,1.4,3.4,3.2v0c0,1.8-1.4,3.2-3.4,3.2h-2.5V192.4z M65.1,197.6c1.2,0,2-0.8,2-1.9
				v0c0-1.1-0.8-2-2-2H64v3.9H65.1z"/>
			<path fill="#A6A8AB" d="M73.5,192.3h1.3l2.8,6.5h-1.5l-0.6-1.5h-2.7l-0.6,1.5h-1.5L73.5,192.3z M75,196.2l-0.9-2.1l-0.9,2.1H75z"
				/>
			<path fill="#A6A8AB" d="M79.2,192.4h1.6l1.7,4.6l1.7-4.6h1.5l-2.6,6.5h-1.3L79.2,192.4z"/>
			<path fill="#A6A8AB" d="M88.5,192.4H90v6.5h-1.4V192.4z"/>
			<path fill="#A6A8AB" d="M93.4,192.4H96c2,0,3.4,1.4,3.4,3.2v0c0,1.8-1.4,3.2-3.4,3.2h-2.5V192.4z M96,197.6c1.2,0,2-0.8,2-1.9v0
				c0-1.1-0.8-2-2-2h-1.1v3.9H96z"/>
			<path fill="#A6A8AB" d="M102,197.9l0.8-1c0.6,0.5,1.2,0.8,1.9,0.8c0.6,0,0.9-0.2,0.9-0.6v0c0-0.4-0.2-0.5-1.3-0.8
				c-1.3-0.3-2.1-0.7-2.1-2v0c0-1.2,0.9-2,2.3-2c0.9,0,1.7,0.3,2.4,0.8l-0.7,1.1c-0.6-0.4-1.1-0.6-1.7-0.6c-0.5,0-0.8,0.3-0.8,0.6v0
				c0,0.4,0.3,0.6,1.4,0.9c1.3,0.3,2.1,0.8,2.1,1.9v0c0,1.3-1,2-2.4,2C103.7,199,102.7,198.6,102,197.9z"/>
			<path fill="#A6A8AB" d="M109.8,195.7L109.8,195.7c0-1.9,1.5-3.4,3.5-3.4c2,0,3.4,1.5,3.4,3.3v0c0,1.8-1.5,3.3-3.5,3.3
				C111.2,199,109.8,197.5,109.8,195.7z M115.2,195.7L115.2,195.7c0-1.1-0.8-2.1-2-2.1c-1.1,0-1.9,0.9-1.9,2v0c0,1.1,0.8,2,2,2
				C114.4,197.7,115.2,196.8,115.2,195.7z"/>
			<path fill="#A6A8AB" d="M119.8,192.4h1.3l3,4v-4h1.4v6.5h-1.2l-3.1-4.1v4.1h-1.4V192.4z"/>
			<path fill="#A6A8AB" d="M135.7,192.4h3c0.7,0,1.3,0.2,1.7,0.6c0.3,0.3,0.4,0.7,0.4,1.1v0c0,0.7-0.4,1.1-0.9,1.4
				c0.7,0.3,1.2,0.7,1.2,1.6v0c0,1.2-1,1.8-2.4,1.8h-3.1V192.4z M138.4,195c0.6,0,1-0.2,1-0.7v0c0-0.4-0.3-0.7-0.9-0.7h-1.4v1.4
				H138.4z M138.8,197.6c0.6,0,1-0.2,1-0.7v0c0-0.4-0.3-0.7-1.1-0.7h-1.6v1.4H138.8z"/>
			<path fill="#A6A8AB" d="M144.3,192.4h4.9v1.3h-3.5v1.3h3.1v1.3h-3.1v1.4h3.5v1.3h-4.9V192.4z"/>
			<path fill="#A6A8AB" d="M152.4,192.4h3c0.8,0,1.5,0.2,1.9,0.7c0.4,0.4,0.6,0.9,0.6,1.5v0c0,1-0.6,1.7-1.4,2l1.6,2.3h-1.7
				l-1.4-2.1h0h-1.1v2.1h-1.4V192.4z M155.3,195.5c0.7,0,1.1-0.4,1.1-0.9v0c0-0.6-0.4-0.9-1.1-0.9h-1.4v1.9H155.3z"/>
			<path fill="#A6A8AB" d="M166,198.4c-0.5,0.4-1.2,0.6-1.9,0.6c-2,0-3.4-1.5-3.4-3.3v0c0-1.8,1.5-3.4,3.5-3.4c2,0,3.4,1.5,3.4,3.3
				v0c0,0.7-0.2,1.3-0.6,1.9l0.7,0.6l-0.9,1L166,198.4z M164.9,197.5l-1.1-0.9l0.9-1l1.1,1c0.1-0.3,0.2-0.6,0.2-0.9v0
				c0-1.1-0.8-2-2-2c-1.1,0-1.9,0.9-1.9,2v0c0,1.1,0.8,2,2,2C164.4,197.7,164.7,197.6,164.9,197.5z"/>
			<path fill="#A6A8AB" d="M170.6,196.1v-3.7h1.4v3.7c0,1.1,0.5,1.6,1.4,1.6c0.9,0,1.4-0.5,1.4-1.6v-3.7h1.4v3.7
				c0,2-1.1,2.9-2.8,2.9C171.7,199,170.6,198,170.6,196.1z"/>
			<path fill="#A6A8AB" d="M179.7,192.4h1.4v6.5h-1.4V192.4z"/>
			<path fill="#A6A8AB" d="M184.1,197.9l0.8-1c0.6,0.5,1.2,0.8,1.9,0.8c0.6,0,0.9-0.2,0.9-0.6v0c0-0.4-0.2-0.5-1.3-0.8
				c-1.3-0.3-2.1-0.7-2.1-2v0c0-1.2,0.9-2,2.3-2c0.9,0,1.7,0.3,2.4,0.8l-0.7,1.1c-0.6-0.4-1.1-0.6-1.7-0.6s-0.8,0.3-0.8,0.6v0
				c0,0.4,0.3,0.6,1.4,0.9c1.3,0.3,2.1,0.8,2.1,1.9v0c0,1.3-1,2-2.4,2C185.9,199,184.9,198.6,184.1,197.9z"/>
			<path fill="#A6A8AB" d="M193.8,193.7h-2v-1.3h5.4v1.3h-2v5.2h-1.4V193.7z"/>
			<path fill="#A6A8AB" d="M206.2,198l0.9-1c0.4,0.4,0.7,0.6,1.2,0.6c0.5,0,0.9-0.3,0.9-1.1v-4.2h1.5v4.2c0,0.8-0.2,1.3-0.6,1.7
				c-0.4,0.4-1,0.6-1.7,0.6C207.3,199,206.6,198.5,206.2,198z"/>
			<path fill="#A6A8AB" d="M215.8,192.3h1.3l2.8,6.5h-1.5l-0.6-1.5h-2.7l-0.6,1.5h-1.5L215.8,192.3z M217.3,196.2l-0.9-2.1l-0.9,2.1
				H217.3z"/>
			<path fill="#A6A8AB" d="M222.1,195.7L222.1,195.7c0-1.9,1.4-3.4,3.4-3.4c1.2,0,2,0.4,2.6,1l-0.9,1c-0.5-0.5-1-0.7-1.7-0.7
				c-1.1,0-1.9,0.9-1.9,2v0c0,1.1,0.8,2,1.9,2c0.7,0,1.2-0.3,1.7-0.8l0.9,0.9c-0.7,0.7-1.4,1.2-2.7,1.2
				C223.5,199,222.1,197.5,222.1,195.7z"/>
			<path fill="#A6A8AB" d="M231,192.4h1.4v2.8l2.6-2.8h1.7l-2.6,2.7l2.8,3.7h-1.7l-2-2.8l-0.7,0.8v2H231V192.4z"/>
			<path fill="#A6A8AB" d="M239.1,197.9l0.8-1c0.6,0.5,1.2,0.8,1.9,0.8c0.6,0,0.9-0.2,0.9-0.6v0c0-0.4-0.2-0.5-1.3-0.8
				c-1.3-0.3-2.1-0.7-2.1-2v0c0-1.2,0.9-2,2.3-2c0.9,0,1.7,0.3,2.4,0.8l-0.7,1.1c-0.6-0.4-1.1-0.6-1.7-0.6c-0.5,0-0.8,0.3-0.8,0.6v0
				c0,0.4,0.3,0.6,1.4,0.9c1.3,0.3,2.1,0.8,2.1,1.9v0c0,1.3-1,2-2.4,2C240.9,199,239.9,198.6,239.1,197.9z"/>
			<path fill="#A6A8AB" d="M246.9,195.7L246.9,195.7c0-1.9,1.5-3.4,3.5-3.4c2,0,3.4,1.5,3.4,3.3v0c0,1.8-1.5,3.3-3.5,3.3
				C248.4,199,246.9,197.5,246.9,195.7z M252.3,195.7L252.3,195.7c0-1.1-0.8-2.1-2-2.1c-1.1,0-1.9,0.9-1.9,2v0c0,1.1,0.8,2,2,2
				C251.5,197.7,252.3,196.8,252.3,195.7z"/>
			<path fill="#A6A8AB" d="M256.9,192.4h1.3l3,4v-4h1.4v6.5h-1.2l-3.1-4.1v4.1h-1.4V192.4z"/>
			<path fill="#A6A8AB" d="M283.8,195.7L283.8,195.7c0-1.9,1.4-3.4,3.4-3.4c1.2,0,1.9,0.3,2.5,0.9l-0.9,1.1
				c-0.5-0.4-0.9-0.7-1.7-0.7c-1,0-1.9,0.9-1.9,2v0c0,1.2,0.8,2.1,2,2.1c0.5,0,1-0.1,1.3-0.4v-0.9h-1.4v-1.2h2.8v2.8
				c-0.7,0.6-1.6,1-2.8,1C285.2,199,283.8,197.6,283.8,195.7z"/>
			<path fill="#A6A8AB" d="M292.9,195.7L292.9,195.7c0-1.9,1.5-3.4,3.5-3.4s3.4,1.5,3.4,3.3v0c0,1.8-1.5,3.3-3.5,3.3
				C294.3,199,292.9,197.5,292.9,195.7z M298.3,195.7L298.3,195.7c0-1.1-0.8-2.1-2-2.1c-1.1,0-1.9,0.9-1.9,2v0c0,1.1,0.8,2,2,2
				C297.5,197.7,298.3,196.8,298.3,195.7z"/>
			<path fill="#A6A8AB" d="M302.1,192.4h1.5l1.3,4.4l1.5-4.4h1.2l1.5,4.4l1.3-4.4h1.5l-2.2,6.5h-1.2l-1.5-4.2l-1.5,4.2h-1.2
				L302.1,192.4z"/>
			<path fill="#A6A8AB" d="M314.7,192.4h2.5c2,0,3.4,1.4,3.4,3.2v0c0,1.8-1.4,3.2-3.4,3.2h-2.5V192.4z M317.3,197.6
				c1.2,0,2-0.8,2-1.9v0c0-1.1-0.8-2-2-2h-1.1v3.9H317.3z"/>
			<path fill="#A6A8AB" d="M323.8,192.4h4.9v1.3h-3.5v1.3h3.1v1.3h-3.1v1.4h3.5v1.3h-4.9V192.4z"/>
			<path fill="#A6A8AB" d="M333.8,196.3l-2.5-3.9h1.7l1.5,2.6l1.6-2.6h1.6l-2.5,3.9v2.6h-1.4V196.3z"/>
		</g>
		<polygon fill="#EC1C24" points="276.6,195.3 273.7,195.3 273.7,192.4 273.1,192.4 273.1,195.3 270.1,195.3 270.1,195.9 
			273.1,195.9 273.1,198.9 273.7,198.9 273.7,195.9 276.6,195.9 		"/>
	</g>
</g>
</svg>
