<?xml version="1.0" encoding="utf-8"?>
<!-- Generator: Adobe Illustrator 18.0.0, SVG Export Plug-In . SVG Version: 6.00 Build 0)  -->
<!DOCTYPE svg PUBLIC "-//W3C//DTD SVG 1.1//EN" "http://www.w3.org/Graphics/SVG/1.1/DTD/svg11.dtd">
<svg version="1.1" id="Layer_1" xmlns="http://www.w3.org/2000/svg" xmlns:xlink="http://www.w3.org/1999/xlink" x="0px" y="0px"
	 viewBox="0 0 400.5 289.3" enable-background="new 0 0 400.5 289.3" xml:space="preserve">
<rect x="-0.1" y="-0.1" fill="#FFFFFF" width="401" height="291"/>
<g>
	<path fill="#23BBB8" d="M272.8,128.9c0-0.4-0.2-0.6-0.4-0.6c-0.2,0-0.3,0-0.5,0.2l-13.6,10.5c-0.5,0.4-0.5,0.9,0,1.3l13.6,10.5
		c0.2,0.1,0.3,0.2,0.5,0.1c0.2,0,0.4-0.2,0.4-0.6V128.9z"/>
	<path fill="#0076BF" d="M178.5,121.4c-9.5,0-17.2,7.9-17.2,17.6c0,9.7,7.7,17.6,17.2,17.6c5.1,0,9.5-1.8,12.8-4.8l4.7,5.2
		c-4.6,4.4-10.7,7.1-17.5,7.1c-13.8,0-25.1-11.3-25.1-25.1c0-13.8,11.3-25.1,25.1-25.1c6.9,0,13,3.2,17,8.1l-4.7,4.7
		C187.7,123.4,183.3,121.4,178.5,121.4z"/>
	<path fill="#0076BF" d="M238,131.3v31.6h-7.9v-31.7c0-4.7-3.9-8.6-8.3-8.6c-5.3,0-9.8,3.1-11.9,7.4v33h-7.9V92.5h7.9v27.4
		c3.2-3,7.3-4.8,11.9-4.8C230.7,115.1,238,122.3,238,131.3z"/>
	<path fill="#0076BF" d="M129.6,164.1c-13.8,0-25.1-11.3-25.1-25.1c0-12.7,7.9-25.1,22.3-25.1c10.7,0,21.9,7.4,21.9,25.1
		c0,0.9,0,1.8-0.1,2.7h-35.9c1.3,8.5,8.6,14.9,17,14.9c4.9,0,9.5-1.8,12.8-4.8l4.7,5.2C142.5,161.4,136.5,164.1,129.6,164.1z
		 M140.5,135c-0.9-9.3-7.3-13.8-13.7-13.8c-8.2,0-12.8,6.7-14,13.8H140.5z"/>
	<path fill="#0076BF" d="M293.5,139c0,13.8-11.3,25.1-25.1,25.1c-13.8,0-25.1-11.3-25.1-25.1c0-13.8,11.3-25.1,25.1-25.1
		C282.2,113.9,293.5,125.2,293.5,139z M285.5,139c0-9.7-7.7-17.6-17.2-17.6c-9.5,0-17.2,7.9-17.2,17.6c0,9.7,7.7,17.6,17.2,17.6
		C277.8,156.6,285.5,148.7,285.5,139z"/>
	<g>
		<path fill="#0076BF" d="M253.5,98c0.8-0.8,2-1.3,3.3-1.3c2.1,0,4,1.5,4,3.7c0,1.1-0.6,2-1.6,2.6c1.5,0.7,2.5,2.1,2.5,3.9
			c0,3.2-3.3,4.8-6.1,4.8c-0.6,0-1.2-0.1-1.8-0.2l0.4-1.6c0.4,0.1,0.9,0.2,1.4,0.2c2.2,0,4.4-1.2,4.4-3.4c0-1.6-1.3-2.8-3.5-2.8
			c-0.2,0-0.6,0-0.8,0l-0.4-1.5c1.9,0,3.7-0.5,3.7-2.2c0-1.1-1-2-2.2-2c-0.9,0-1.6,0.3-2.3,0.9L253.5,98z"/>
		<path fill="#0076BF" d="M267.7,98.6c2.7,0,4.7,2,4.7,4.5c0,2.5-2.1,4.6-4.7,4.6c-1.5,0-4.7-1.1-4.7-5.5c0-5.8,3.5-8.8,6.8-9.4
			l0.4,1.6c-1.9,0.3-4.3,1.7-5.2,5.1C265.8,98.9,266.7,98.6,267.7,98.6z M267.7,106.1c1.6,0,2.9-1.3,2.9-2.9c0-1.6-1.3-2.9-2.9-2.9
			c-0.9,0-2.9,0.5-2.9,2.9C264.8,104.7,266.1,106.1,267.7,106.1z"/>
		<path fill="#0076BF" d="M284.6,102.2c0,3-2.5,5.5-5.5,5.5c-3,0-5.5-2.5-5.5-5.5c0-3,2.5-5.5,5.5-5.5
			C282.1,96.7,284.6,99.1,284.6,102.2z M282.8,102.2c0-2.1-1.7-3.9-3.8-3.9c-2.1,0-3.8,1.7-3.8,3.9c0,2.1,1.7,3.9,3.8,3.9
			C281.1,106.1,282.8,104.3,282.8,102.2z"/>
	</g>
	<g id="register_3_">
		<path fill="#0076BF" d="M292.4,155.5c1.9,0,3.5,1.5,3.5,3.5c0,2-1.6,3.5-3.5,3.5c-1.9,0-3.6-1.5-3.6-3.5
			C288.9,157,290.5,155.5,292.4,155.5z M292.4,162c1.6,0,2.9-1.3,2.9-3c0-1.7-1.3-3-2.9-3c-1.7,0-2.9,1.3-2.9,3
			C289.5,160.7,290.8,162,292.4,162z M291.1,157h1.6c1,0,1.4,0.4,1.4,1.2c0,0.7-0.5,1.1-1.1,1.1l1.2,1.8h-0.7l-1.1-1.8h-0.7v1.8
			h-0.6V157z M291.7,158.8h0.7c0.6,0,1.1,0,1.1-0.7c0-0.5-0.5-0.6-0.9-0.6h-0.9V158.8z"/>
	</g>
	<g>
		<path fill="#D49E0F" d="M104.1,182.3c0-2,1.7-3.2,4.2-3.2c1.1,0,2.1,0.1,2.7,0.3v-0.8c0-0.6-0.1-1.1-0.4-1.4
			c-0.4-0.6-1.1-0.8-2.1-0.8c-0.5,0-0.8,0.1-1,0.2c0,0.1,0.1,0.4,0.1,0.5c0,0.8-0.6,1.4-1.4,1.4c-0.8,0-1.4-0.6-1.4-1.4
			c0-1.3,1.3-2.7,4.2-2.7c1.8,0,3,0.5,3.8,1.4c0.6,0.7,0.8,1.6,0.8,2.7v4.5h1.6v2.2h-4.1V184c-0.8,0.7-2.1,1.4-3.5,1.4
			C105.7,185.3,104.1,184.3,104.1,182.3z M111,182.5v-1.7c-0.6-0.1-1.3-0.2-2.2-0.2c-1.3,0-2.1,0.6-2.1,1.5c0,0.8,0.6,1.3,1.6,1.3
			C109.3,183.4,110.2,183,111,182.5z"/>
		<path fill="#D49E0F" d="M118.7,179.7c0-2.7,2.2-5.4,5.4-5.4c2.9,0,4.8,1.9,4.8,3.5c0,1.1-0.7,1.8-1.7,1.8c-0.9,0-1.6-0.7-1.6-1.6
			c0-0.3,0.1-0.7,0.3-0.9c-0.2-0.3-0.8-0.7-1.9-0.7c-1.2,0-2.7,1-2.7,3.3c0,2,1.5,3.3,3.4,3.3c1.3,0,2.4-0.4,3.8-1.1l-0.2,2.4
			c-1.1,0.7-2.2,1-3.8,1C121.2,185.3,118.7,183.1,118.7,179.7z"/>
		<path fill="#D49E0F" d="M135.1,183.9c-0.2-0.4-0.4-1-0.4-1.7v-5.4h-2v-2.2h2v-2.2l2.6-1.1v3.4h3.2v2.2h-3.2v4.9
			c0,0.3,0,0.6,0.2,0.8c0.2,0.3,0.6,0.5,1.1,0.5c0.7,0,1.4-0.3,2.1-0.6l-0.2,2.3c-0.7,0.4-1.6,0.6-2.5,0.6
			C136.6,185.3,135.6,184.9,135.1,183.9z"/>
		<path fill="#D49E0F" d="M144.6,182.9h1.6v-6.2h-1.6v-2.2h4.2v8.4h1.6v2.2h-5.8V182.9z M145.6,171.2c0-1,0.8-1.7,1.8-1.7
			c0.9,0,1.7,0.8,1.7,1.7c0,1-0.8,1.7-1.8,1.7C146.3,172.9,145.6,172.2,145.6,171.2z"/>
		<path fill="#D49E0F" d="M154.8,176.8h-1.2v-2.2h5.4v2.1h-1.5l2.5,5.5l2.5-5.5h-1.6v-2.1h5.4v2.2H165l-4.2,8.5H159L154.8,176.8z"/>
		<path fill="#D49E0F" d="M172.1,180.7c0.4,1.6,1.7,2.4,3.5,2.4c1.3,0,2.6-0.4,3.8-1.1l-0.2,2.4c-1.1,0.7-2.5,1-4,1
			c-3.4,0-5.8-2.2-5.8-5.5c0-3,2.1-5.5,5.4-5.5c3.4,0,5.1,2.3,5.1,5.1c0,0.4,0,0.9-0.1,1.3H172.1z M172.1,178.9h5.1
			c0-1.4-1-2.4-2.5-2.4C173.6,176.5,172.4,177.2,172.1,178.9z"/>
		<path fill="#D49E0F" d="M191.8,183.7h1.7v-14.8h-1.7v-1.4h3.4v16.2h1.7v1.4h-5.1V183.7z"/>
		<path fill="#D49E0F" d="M203,180.5c0.2,2.3,1.7,3.4,4,3.4c1.4,0,2.4-0.4,3.6-1.1l-0.1,1.6c-1.1,0.7-2.4,1-3.7,1
			c-3.3,0-5.5-2.2-5.5-5.3c0-2.8,1.9-5.4,5-5.4c3.1,0,4.7,2.3,4.7,4.8c0,0.4,0,0.7-0.1,1H203z M203,179.1h6.3
			c-0.1-1.8-1.2-3.1-3.1-3.1C204.6,176.1,203.2,177.2,203,179.1z"/>
		<path fill="#D49E0F" d="M215.2,182.4c0-1.9,1.7-3.1,4-3.1c1.1,0,2.4,0.3,3,0.5v-1.4c0-0.6-0.2-1.1-0.5-1.4
			c-0.5-0.5-1.2-0.8-2.2-0.8c-0.8,0-1.3,0.2-1.6,0.4c0.1,0.2,0.1,0.4,0.1,0.6c0,0.6-0.4,1.1-1.1,1.1c-0.6,0-1.1-0.5-1.1-1.1
			c0-1.2,1.3-2.4,3.8-2.4c1.5,0,2.6,0.5,3.3,1.2c0.5,0.6,0.8,1.3,0.8,2.2v5.6h1.7v1.4h-3.2v-1.3c-0.8,0.8-2.2,1.5-3.6,1.5
			C216.6,185.3,215.2,184.1,215.2,182.4z M222.1,182.5v-1.7c-0.8-0.2-1.8-0.4-2.8-0.4c-1.6,0-2.5,0.8-2.5,1.8c0,1,0.7,1.7,2.1,1.7
			C220.3,184,221.4,183.3,222.1,182.5z"/>
		<path fill="#D49E0F" d="M237.4,176c0,0.7-0.5,1.2-1.2,1.2c-0.6,0-1.1-0.4-1.2-0.9c-0.8,0.2-1.7,1.1-2.2,2.2v5.1h1.9v1.4h-5.2v-1.4
			h1.6v-7.4h-1.6v-1.5h3.2v2.3c0.8-1.4,2-2.5,3.1-2.5C236.9,174.6,237.4,175.3,237.4,176z"/>
		<path fill="#D49E0F" d="M244.4,176.7c1-1.1,2.4-2.1,3.9-2.1c1.3,0,2.2,0.5,2.7,1.3c0.3,0.6,0.5,1.3,0.5,2.1v5.5h1.6v1.4h-4.9v-1.4
			h1.6v-5.2c0-0.6-0.1-1-0.3-1.4c-0.3-0.6-0.9-0.9-1.7-0.9c-1.3,0-2.5,0.8-3.4,1.8v5.7h1.6v1.4h-4.9v-1.4h1.6v-7.4h-1.6v-1.5h3.2
			V176.7z"/>
		<path fill="#D49E0F" d="M257.4,183.7h1.7v-7.4h-1.7v-1.5h3.4v8.8h1.7v1.4h-5.1V183.7z M258.4,170.9c0-0.7,0.6-1.3,1.4-1.3
			c0.7,0,1.3,0.6,1.3,1.3c0,0.7-0.6,1.3-1.3,1.3C259,172.2,258.4,171.6,258.4,170.9z"/>
		<path fill="#D49E0F" d="M270.1,176.7c1-1.1,2.4-2.1,3.9-2.1c1.3,0,2.2,0.5,2.7,1.3c0.3,0.6,0.5,1.3,0.5,2.1v5.5h1.6v1.4h-4.9v-1.4
			h1.6v-5.2c0-0.6-0.1-1-0.3-1.4c-0.3-0.6-0.9-0.9-1.7-0.9c-1.3,0-2.5,0.8-3.4,1.8v5.7h1.6v1.4h-4.9v-1.4h1.6v-7.4h-1.6v-1.5h3.2
			V176.7z"/>
		<path fill="#D49E0F" d="M292.8,185.5c0,1.3-0.3,2.3-0.9,3c-0.9,1.1-2.3,1.5-3.9,1.5c-1.6,0-2.9-0.5-3.5-1.1
			c-0.4-0.4-0.5-0.8-0.5-1.2c0-0.7,0.5-1.3,1.2-1.3c0.6,0,1,0.5,1,1c0,0.2-0.1,0.5-0.2,0.7c0.3,0.2,1,0.4,2,0.4c1,0,2-0.3,2.6-1
			c0.4-0.5,0.6-1.1,0.6-2v-2c-0.8,0.9-1.9,1.5-3.4,1.5c-2.7,0-4.9-2.1-4.9-5.1c0-2.8,2-5.3,5.1-5.3c1.4,0,2.5,0.6,3.3,1.3v-1.1h3.3
			v1.5h-1.7V185.5z M284.5,179.9c0,2.2,1.4,3.7,3.4,3.7c1.3,0,2.3-0.6,3.2-1.5v-4.8c-0.7-0.7-1.7-1.2-3.1-1.2
			C285.9,176.1,284.5,177.8,284.5,179.9z"/>
	</g>
</g>
</svg>
