<?xml version="1.0" encoding="utf-8"?>
<!-- Generator: Adobe Illustrator 18.0.0, SVG Export Plug-In . SVG Version: 6.00 Build 0)  -->
<!DOCTYPE svg PUBLIC "-//W3C//DTD SVG 1.1//EN" "http://www.w3.org/Graphics/SVG/1.1/DTD/svg11.dtd">
<svg version="1.1" xmlns="http://www.w3.org/2000/svg" xmlns:xlink="http://www.w3.org/1999/xlink" x="0px" y="0px"
	 viewBox="0 0 800 576.9" enable-background="new 0 0 800 576.9" xml:space="preserve">
<g id="Layer_1">
	<rect x="-1.3" y="-0.7" fill="#FFFDFF" width="804.7" height="589.9"/>
	<g>
		<g>
			<path fill="#EC1C37" d="M136,247c3.8,1.1,6.8,0.5,8.6-2.7c1.9-3.3,0.7-6.1-2.1-8.6c1.9-2.5,3.7-4.9,5.7-7.5
				c3.3,1.9,6.5,2.5,9.3-0.5c2.4-2.7,1.9-5.6,0.1-8.8c2.4-1.9,4.8-3.8,7.3-5.7c2.7,2.4,5.4,4.2,8.9,2c3.2-2,3.6-5,2.7-8.6
				c2.8-1.2,5.6-2.4,8.5-3.6c0.8,1,1.4,1.9,2.2,2.7c3.6,3.4,9.7,1.7,10.5-3.2c0.4-2.9,1.8-3.3,4.1-3.4c1.7-0.1,3.5-0.4,5.4-0.7
				c1.3,3.5,3,6.3,7.1,6.1c3.6-0.2,5.3-2.7,6.3-6c2.7,0.3,5.3,0.5,7.9,1c0.6,0.1,1.5,1.1,1.5,1.7c0.2,3.5,2.1,5.5,5.3,6.2
				c3.1,0.7,5.2-1,6.8-3.5c0.2-0.3,0.4-0.5,0.6-0.9c3,1.2,5.7,2.4,8.6,3.6c-1.2,3.7-0.5,6.6,2.6,8.6c3.4,2.2,6.2,0.5,8.9-2
				c2.5,1.9,4.8,3.7,7.4,5.6c-1.7,3.2-2.4,6.5,0.5,9.3c2.8,2.6,5.8,1.9,8.9,0.1c2,2.6,3.8,5,5.7,7.4c-2.2,2.5-4,4.9-2.4,8.1
				c1.3,2.8,3.6,4.3,6.6,3.8c2-0.4,2.8,0.1,3.4,1.9c0.7,2.2,1.7,4.2,1.7,6.1c-1.2,2.2-3,4.2-3.5,6.6c-0.7,2.7,2.1,6,5.2,6.2
				c2.6,0.1,3.1,1.4,3.2,3.5c0,0.9,0.2,1.7,0.4,2.6c0.5,2.1,0.2,3.4-2.1,4.6c-1.7,0.9-3,3.3-3.5,5.3c-0.7,2.6,1.1,4.6,3.4,5.8
				c0.7,0.4,1.6,0.7,2.6,1.1c-0.3,2.5-0.5,5-0.9,7.5c-0.1,0.6-1,1.6-1.6,1.6c-3.6,0.3-5.8,2.1-6.5,5.5c-0.6,3.4,1.5,5.5,4.5,7.2
				c-1.2,2.8-2.3,5.6-3.5,8.6c-3.7-0.8-7-0.5-8.9,3.1c-1.8,3.3-0.3,5.9,2.2,8.4c-1.9,2.4-3.7,4.8-5.6,7.4c-3.4-1.6-6.6-2.4-9.4,0.7
				c-2.4,2.7-1.9,5.6,0,8.6c-2.5,2-4.9,3.8-7.2,5.6c-1.7-0.9-3-2-4.5-2.4c-4.1-1.2-8.6,2.5-7.7,6.7c0.5,2.2-0.3,3-2,3.6
				c-2,0.8-4,1.6-5.5,2.2c-1.5-1.3-2.5-2.4-3.8-3.3c-3.5-2.3-8.8-0.2-9.2,3.9c-0.3,2.9-1.5,3.4-3.8,3.5c-1.8,0-3.7,0.4-5.7,0.7
				c-1.3-3.5-3.1-6.4-7.3-6.1c-3.4,0.2-5.1,2.6-6.1,6c-2.7-0.3-5.4-0.5-8-0.9c-0.5-0.1-1.2-0.8-1.2-1.2c-0.2-3.6-1.9-6.1-5.6-6.7
				c-3.4-0.6-5.5,1.5-7.3,4.3c-2.9-1.2-5.7-2.3-8.5-3.5c0.8-3.7,0.6-6.9-2.9-8.8c-3.3-1.8-6.1-0.5-8.5,2.2c-2.5-2-5-3.8-7.5-5.8
				c1.7-3.3,2.4-6.4-0.5-9.2c-2.7-2.5-5.6-1.8-8.8-0.3c-1.8-2.3-3.7-4.7-5.7-7.3c2.7-2.7,4.1-5.6,1.9-9.1c-1.9-3.1-4.9-3.4-8.4-2.4
				c-1.2-2.8-2.4-5.6-3.6-8.5c0.8-0.6,1.5-1.1,2.1-1.7c3.8-3.4,2.8-9.6-2.1-10.7c-3.2-0.7-4-2.1-4.1-4.9c0-1.6-0.3-3.2-0.4-5
				c3.5-1,6-2.9,6-6.6c0-3.7-2.6-5.6-6.1-6.7c0.3-2.7,0.5-5.3,1-7.9c0.1-0.6,1.3-1.3,2-1.4c2.9-0.3,4.9-1.8,5.7-4.6
				c0.8-2.9-0.3-5-2.5-7c-0.7-0.6-1.1-2.2-0.8-3.1C133.9,251.4,135,249.4,136,247z M255.1,334.4c-1.4-9.7-2.6-18.7-3.8-27.7
				c-3.1-23.4-6.2-46.8-9.3-70.3c-0.2-1.8-1-2.5-2.7-2.5c-2.9,0.1-5.7,0-8.6,0c-5.9,0-6,0-6.9,5.8c-2,14.2-3.9,28.4-5.8,42.6
				c-1.7,12.4-3.3,24.7-5,37.1c-0.6,4.8-1.2,9.7-1.9,15c4.7,0,8.9,0.1,13.2-0.1c0.6,0,1.6-1.3,1.8-2.1c0.8-5,1.5-10,2-15
				c0.8-7.4,0.7-7.4,8.1-6.9c0.2,0,0.4,0.2,0.7,0.3c0.1,0.3,0.2,0.6,0.3,0.9c0.9,6.6,1.7,13.2,2.7,19.8c0.2,1.1,1.1,2.9,1.7,2.9
				C246,334.6,250.3,334.4,255.1,334.4z M193.9,267.6c4.3,0,8.1-0.1,11.8,0c2,0.1,2.7-0.7,2.6-2.7c-0.1-4.4,0.2-8.8-0.1-13.2
				c-0.3-6.1-1.9-11.8-7.6-15.3c-6.7-4.1-13.9-4.1-20.7-0.7c-6.5,3.2-8.7,9.2-8.7,16.1c0,21.8,0,43.7,0,65.5
				c0,14.3,8.4,17.9,18.9,17.7c10.2-0.2,16.1-4.7,16.9-14.2c0.9-10.7,0.5-21.5,0.4-32.2c0-0.6-1.5-1.8-2.3-1.8
				c-4.7-0.2-9.4-0.1-14.2,0c-0.8,0-2.2,0.8-2.2,1.2c-0.2,3.7-0.1,7.3-0.1,11c2,0.2,3.3,0.3,4.9,0.5c0,5.7,0,11.2,0,16.6
				c0,3.9-1.3,5.4-4.6,5.3c-3.1,0-3.7-0.9-3.7-5.1c0-20.8,0-41.7,0-62.5c0-1.4,0.2-2.8,0.6-4.2c0.7-2,2.5-3.1,4.4-2.3
				c1.3,0.5,2.5,1.9,3.2,3.2c0.6,1.1,0.3,2.6,0.3,3.9C193.9,258.5,193.9,262.8,193.9,267.6z"/>
			<path d="M586.2,269.3c-5.2,0-9.9,0-15.1,0c-0.8-4.6-1.6-9.3-2.4-14.2c-3.6,0-7.1,0-10.8,0c-0.8,4.6-1.5,9.3-2.3,14.3
				c-9.6,0-19,0.1-28.5-0.1c-0.7,0-1.9-1.3-2.1-2.2c-2.5-8-4.9-16.1-7.4-24.2c-0.5-1.7-1.1-3.2-3.6-2.1c0,9.3,0,18.7,0,28.4
				c-4.9,0-9.5,0-14.4,0c0-24.5,0-49,0-73.4c8.1,0,16.1-0.6,24,0.2c7.5,0.8,12.3,6.1,13.3,13.5c0.7,5.6,0.7,11.4-0.3,16.9
				c-0.6,3.4-3.6,6.3-5.4,9.5c-0.5,0.8-1.2,1.9-1,2.7c3.1,9.6,6.3,19.2,9.5,28.7c0.1,0.2,0.3,0.2,0.8,0.6
				c4.6-24.2,9.2-48.2,13.8-72.6c5.4,0,10.7-0.1,16.1,0.1c0.7,0,1.9,1.4,2,2.3c3.4,17.4,6.7,34.8,10,52.3
				C583.7,256.3,584.9,262.6,586.2,269.3z M514.1,226.5c3.7,0.3,7,0,8.7-3.5c1.8-3.7,2.1-7.7-0.4-11.2c-1.9-2.8-5-3.1-8.3-2.5
				C514.1,215,514.1,220.5,514.1,226.5z M566.6,241.1c-1-8.9-2-17.4-3-25.9c-0.2,0-0.5,0-0.7,0.1c-1,8.5-1.9,17-3,25.9
				c1.1,0,1.8,0,2.6,0C563.8,241.1,565,241.1,566.6,241.1z"/>
			<path d="M513.2,327.6c0,11.3,0,22.5,0,33.9c-4.8,0-9.4,0-14.2,0c0-24.4,0-48.8,0-73.8c4,0,8.1-0.1,12.2,0.1c0.7,0,1.7,1.5,2,2.5
				c3.6,9.8,7.1,19.6,10.6,29.4c0.3,0.7,0.6,1.4,1.1,2.9c0.6-1.5,1-2.4,1.3-3.4c3.4-9.6,6.9-19.2,10.2-28.8c0.7-1.9,1.6-2.8,3.7-2.7
				c3.5,0.2,7,0,10.7,0c0,24.7,0,49.2,0,73.8c-4.7,0-9.2,0-14.2,0c0-11.2,0-22.3,0-33.4c-0.2,0-0.5-0.1-0.7-0.1
				c-1.6,5-3.5,10-4.8,15.1c-0.8,3.2-2.2,4.4-5.6,4.2c-5.5-0.3-5.5-0.1-7.2-5.5c-1.5-4.8-3-9.6-4.5-14.3
				C513.7,327.5,513.4,327.6,513.2,327.6z"/>
			<path d="M410.4,195.3c3.8,0,7.3-0.2,10.8,0.1c0.9,0.1,2.1,1.3,2.5,2.3c3.8,9.4,7.5,18.9,11.3,28.4c0.4,1.1,0.9,2.1,1.9,3.1
				c0-11.2,0-22.4,0-33.8c4.8,0,9.3,0,14,0c0,24.6,0,49.1,0,74c-3.5,0-7,0.2-10.5-0.1c-0.9-0.1-2-1.4-2.4-2.5
				c-3.9-9.8-7.7-19.6-11.5-29.4c-0.4-1-0.8-2-1.7-3c0,11.5,0,22.9,0,34.6c-5,0-9.5,0-14.3,0C410.4,244.7,410.4,220.3,410.4,195.3z"
				/>
			<path d="M559.5,287.4c7.9,0.3,15.7,0.2,23.4,1.2c6,0.7,10.2,4.8,11.6,10.8c0.9,4.1,1.3,8.5,1,12.6c-0.3,4.7-2.9,8.4-7.7,10.7
				c5.4,2.4,8,6.6,8.5,11.8c0.6,7.3,0.5,14.5-4.2,20.7c-3.2,4.2-7.9,6-12.9,6.3c-6.4,0.4-12.9,0.1-19.5,0.1
				C559.5,337,559.5,312.7,559.5,287.4z M574,347.6c5.3,0.4,7.7-1,8.3-5c0.3-2.3,0.4-4.8,0.2-7.2c-0.5-5-3.4-6.8-8.4-5.4
				C574,335.8,574,341.6,574,347.6z M574,315.9c3.1,0.5,5.6,0.1,7-2.7c1.6-3.2,1.7-6.7-0.2-9.7c-1.5-2.4-4.2-2.2-6.8-1.9
				C574,306.5,574,311.1,574,315.9z"/>
			<path d="M350.2,215.9c-0.6-1.7-0.7-3.5-1.6-4.8c-0.9-1.2-2.7-2.7-4-2.6c-1.3,0.1-2.8,1.8-3.8,3c-0.6,0.7-0.5,2.1-0.6,3.2
				c0,12.1,0,24.1,0,36.2c0,4.5,3,6.5,6.6,4.5c1.1-0.6,2.2-2.1,2.3-3.2c0.3-3.7,0.1-7.4,0.1-11.3c-1.6-0.2-3-0.3-4.6-0.4
				c0-4.1,0-8.2,0-12.4c6.4,0,12.6,0,19.5,0c-0.4,9.9-0.2,19.8-1.3,29.5c-0.7,6.4-5.5,10.5-11.9,11.6c-4.2,0.7-8.8,0.6-13-0.1
				c-7-1.2-11.1-6-11.6-13.2c-0.5-6.9-0.4-13.8-0.4-20.7c0-8.2-0.2-16.5,0.3-24.7c0.6-9.1,6.6-14.9,15.6-15.6
				c3.3-0.3,6.8-0.1,10.1,0.6c7.7,1.8,11.9,7.7,12.1,15.6c0,2-0.7,2.7-2.5,3C357.7,214.6,354,215.3,350.2,215.9z"/>
			<path d="M353.2,361.4c-0.8-4.7-1.5-9.3-2.3-14.1c-3.6,0-7.1,0-10.8,0c-0.8,4.7-1.5,9.3-2.3,14.1c-5,0-9.8,0-15.2,0
				c1-5.7,2-11.2,3.1-16.8c3.4-18.1,6.9-36.1,10.3-54.2c0.4-2.2,1.2-2.9,3.4-2.9c4.2,0.1,8.3,0.1,12.5,0c1.6,0,2.5,0.3,2.8,2.2
				c4.5,23.8,9.1,47.5,13.7,71.5C363.3,361.4,358.5,361.4,353.2,361.4z M345.8,307.4c-0.2,0-0.5,0.1-0.7,0.1c-1,8.5-2,17.1-3,25.8
				c2.2,0,4.2,0,6.5,0C347.7,324.5,346.8,316,345.8,307.4z"/>
			<path d="M493.4,195.6c0,4.5,0,8.7,0,13.4c-6.4,0-12.7,0-19.2,0c0,5.4,0,10.3,0,15.6c5.5,0,11,0,16.6,0c0,4.7,0,9.1,0,13.9
				c-5.5,0-10.9,0-16.6,0c0,5.7,0,11.1,0,16.9c6.3,0,12.6,0,19.1,0c0,4.8,0,9.2,0,13.9c-11.1,0-22.2,0-33.5,0c0-24.5,0-48.9,0-73.6
				C470.9,195.6,482,195.6,493.4,195.6z"/>
			<path d="M385.1,224.6c5.6,0,11,0,16.7,0c0,4.7,0,9.1,0,13.8c-5.4,0-10.9,0-16.6,0c0,5.8,0,11.3,0,17.1c6.3,0,12.5,0,18.9,0
				c0,4.7,0,9.2,0,13.8c-11.2,0-22.2,0-33.5,0c0-24.5,0-49,0-73.8c11,0,22.1,0,33.4,0c0,4.4,0,8.8,0,13.5c-6.3,0-12.5,0-18.9,0
				C385.1,214.3,385.1,219.3,385.1,224.6z"/>
			<path d="M493.4,287.9c0,4.6,0,8.9,0,13.5c-6.4,0-12.7,0-19.3,0c0,5.4,0,10.4,0,15.8c5.4,0,10.8,0,16.5,0c0,4.7,0,9,0,13.9
				c-5.4,0-10.9,0-16.6,0c0,5.8,0,11.1,0,16.8c6.5,0,12.8,0,19.2,0c0,4.7,0,9,0,13.6c-11.1,0-22.2,0-33.5,0c0-24.4,0-48.9,0-73.6
				C471,287.9,482,287.9,493.4,287.9z"/>
			<path d="M452.7,305.6c-4.6,1-9,1.9-13.6,2.9c-0.4-1.7-0.3-3.5-1.1-4.6c-0.9-1.3-2.4-2.8-3.8-2.9c-1.3-0.1-3.2,1.3-3.9,2.6
				c-2.3,4.5-0.6,9.4,3.8,11.7c2.7,1.4,5.6,2.5,8.3,3.8c6.7,3.3,10.2,8.7,10.2,16.3c0,4.3,0,8.6-0.6,12.8c-1.2,8-5.4,12.4-13.4,13.5
				c-3.8,0.5-7.9,0.5-11.7-0.3c-8-1.7-12.6-8.8-12.4-18.2c4.6-0.9,9.2-1.8,14.1-2.8c0.4,1.7,0.3,3.6,1.2,4.8c0.9,1.4,2.6,3,4,3
				c1.4,0,3.7-1.6,4-2.9c1.9-7.8,1.1-13-6.6-15.3c-0.3-0.1-0.6-0.3-0.9-0.4c-14.1-5.7-18-14.4-14-30.8c1.4-5.9,5.6-9.7,11.6-10.9
				c3.6-0.7,7.5-0.9,11.1-0.4C447.8,288.8,452.8,295.6,452.7,305.6z"/>
			<path d="M371.1,343.2c4.7-0.9,9.3-1.8,14.3-2.8c0.3,1.5,0.5,3,0.9,4.4c0.5,2.1,1.7,3.5,4.1,3.6c2.4,0.1,3.6-1.3,4.3-3.3
				c2.4-7.2,0.2-12.2-6.7-15.1c-0.6-0.3-1.2-0.5-1.8-0.8c-13.8-6-17.2-15-13-31.1c1.6-6,6.2-9.3,12.2-10.7c9.1-2,17.8,0.7,21.4,7.5
				c1.6,3.1,2.2,6.7,3.3,10.4c-5.3,1.2-9.8,2.2-14.4,3.2c-0.4-1.7-0.3-3.4-1.1-4.5c-1-1.3-2.6-2.9-4-3c-1.2-0.1-3.1,1.5-3.7,2.8
				c-2.2,4.8-0.5,9.2,4.1,11.6c2.6,1.4,5.4,2.4,8.1,3.7c6.7,3.3,10.4,8.6,10.3,16.2c0,4.5,0,9-0.7,13.4c-1.1,7.4-5.5,11.9-12.9,12.9
				c-3.9,0.6-8.1,0.5-12-0.2C375.7,359.9,371.3,353.3,371.1,343.2z"/>
			<path d="M675.8,287.7c-3.2,9.9-6.3,19.3-9.3,28.6c-0.3,0.9-0.6,1.9-1,2.8c-4.2,9.3-4.4,19.1-4.1,29c0.2,4.4,0,8.7,0,13.4
				c-4.8,0-9.5,0-14.5,0c0-4.5-0.3-8.9,0.1-13.4c0.8-11.2-1-21.9-5.1-32.4c-3.1-7.7-5.3-15.8-7.9-23.7c-0.4-1.2-0.7-2.5-1.2-4
				c5.2,0,10.1,0,15.3,0c2,8.7,4.1,17.5,6.2,26.3c0.2,0,0.3,0,0.5,0c1.5-7,3.1-14,4.6-21c1.2-5.6,1.2-5.6,6.7-5.6
				C669.1,287.7,672.2,287.7,675.8,287.7z"/>
			<path d="M605,255.5c6.6,0,12.9,0,19.4,0c0,4.7,0,9.1,0,13.7c-11.1,0-22.2,0-33.6,0c0-24.4,0-48.8,0-73.6c4.6,0,9.2,0,14.2,0
				C605,215.5,605,235.3,605,255.5z"/>
			<path d="M638.6,361.5c-11.2,0-22.2,0-33.5,0c0-24.5,0-49,0-73.6c4.7,0,9.2,0,14.1,0c0,19.8,0,39.6,0,59.8c6.6,0,12.9,0,19.4,0
				C638.6,352.5,638.6,356.9,638.6,361.5z"/>
			<path fill="#FFFFFF" d="M255.1,334.4c-4.8,0-9.2,0.1-13.5-0.1c-0.7,0-1.6-1.8-1.7-2.9c-1-6.6-1.8-13.2-2.7-19.8
				c0-0.3-0.2-0.6-0.3-0.9c-0.3-0.1-0.5-0.3-0.7-0.3c-7.4-0.5-7.3-0.4-8.1,6.9c-0.5,5-1.2,10-2,15c-0.1,0.8-1.1,2-1.8,2.1
				c-4.2,0.2-8.5,0.1-13.2,0.1c0.7-5.3,1.2-10.1,1.9-15c1.6-12.4,3.3-24.7,5-37.1c1.9-14.2,3.8-28.4,5.8-42.6c0.8-5.9,1-5.8,6.9-5.8
				c2.9,0,5.7,0,8.6,0c1.8,0,2.5,0.7,2.7,2.5c3.1,23.4,6.2,46.9,9.3,70.3C252.5,315.7,253.8,324.7,255.1,334.4z M233.1,297.9
				c3.3,0,6-2.6,6-5.7c0-3.1-2.7-5.7-6-5.7c-3.5,0-5.7,2.2-5.7,5.7C227.4,295.7,229.6,297.9,233.1,297.9z"/>
			<path fill="#FFFFFF" d="M193.9,267.6c0-4.8,0-9,0-13.3c0-1.3,0.2-2.8-0.3-3.9c-0.7-1.3-1.9-2.7-3.2-3.2c-1.9-0.7-3.7,0.3-4.4,2.3
				c-0.4,1.3-0.6,2.8-0.6,4.2c0,20.8,0,41.7,0,62.5c0,4.2,0.7,5.1,3.7,5.1c3.3,0,4.6-1.4,4.6-5.3c0-5.5,0-10.9,0-16.6
				c-1.6-0.2-2.9-0.3-4.9-0.5c0-3.6-0.1-7.3,0.1-11c0-0.5,1.4-1.2,2.2-1.2c4.7-0.1,9.4-0.1,14.2,0c0.8,0,2.3,1.2,2.3,1.8
				c0,10.7,0.5,21.5-0.4,32.2c-0.8,9.5-6.8,14.1-16.9,14.2c-10.5,0.2-18.9-3.4-18.9-17.7c0-21.8,0-43.7,0-65.5
				c0-6.9,2.3-13,8.7-16.1c6.9-3.4,14-3.3,20.7,0.7c5.6,3.4,7.2,9.1,7.6,15.3c0.2,4.4,0,8.8,0.1,13.2c0,2-0.6,2.8-2.6,2.7
				C202,267.5,198.3,267.6,193.9,267.6z"/>
			<path fill="#EC1C37" d="M233.1,297.9c-3.5,0-5.7-2.1-5.7-5.7c0-3.5,2.2-5.7,5.7-5.7c3.3,0,5.9,2.6,6,5.7
				C239.1,295.3,236.4,297.8,233.1,297.9z"/>
		</g>
	</g>
</g>
<g id="Layer_2">
</g>
</svg>
