<?xml version="1.0" encoding="utf-8"?>
<!-- Generator: Adobe Illustrator 18.0.0, SVG Export Plug-In . SVG Version: 6.00 Build 0)  -->
<!DOCTYPE svg PUBLIC "-//W3C//DTD SVG 1.1//EN" "http://www.w3.org/Graphics/SVG/1.1/DTD/svg11.dtd">
<svg version="1.1" id="Layer_1" xmlns="http://www.w3.org/2000/svg" xmlns:xlink="http://www.w3.org/1999/xlink" x="0px" y="0px"
	 viewBox="0 0 400.5 289.3" enable-background="new 0 0 400.5 289.3" xml:space="preserve">
<rect x="-0.1" y="-0.1" fill="#FFFFFF" width="401" height="289"/>
<g>
	<g>
		<path fill="#004B8D" d="M138.8,179.5l1-1.3c0.3,0.6,1,0.9,1.7,0.9c1.1,0,1.8-0.7,2-1.8l1.5-6.9h1.8l-1.5,6.9
			c-0.5,2.3-1.7,3.4-3.7,3.4C140.5,180.7,139.4,180.4,138.8,179.5z"/>
		<path fill="#004B8D" d="M147.3,177.4c0-2.3,1.7-4.4,4.2-4.4c2.2,0,3.5,1.4,3.5,3.3c0,2.3-1.7,4.4-4.2,4.4
			C148.6,180.7,147.3,179.4,147.3,177.4z M153.4,176.4c0-1.2-0.7-2-1.9-2c-1.5,0-2.5,1.4-2.5,2.9c0,1.2,0.7,2,1.9,2
			C152.3,179.3,153.4,177.9,153.4,176.4z"/>
		<path fill="#004B8D" d="M156,180.6l1.6-7.4h1.6l-1.6,7.4H156z M157.9,171.5c0-0.7,0.6-1.1,1.1-1.1c0.5,0,0.9,0.4,0.9,0.9
			c0,0.7-0.6,1.1-1.1,1.1C158.3,172.3,157.9,171.9,157.9,171.5z"/>
		<path fill="#004B8D" d="M165,180.6l1-4.6c0-0.1,0.1-0.3,0.1-0.5c0-0.7-0.6-1.1-1.2-1.1c-0.9,0-1.6,0.5-2.1,1l-1.1,5.1H160l1.6-7.4
			h1.6l-0.2,1c0.6-0.6,1.4-1.2,2.5-1.2c1.4,0,2.3,0.7,2.3,1.9c0,0.1,0,0.5-0.1,0.6l-1.1,5.1H165z"/>
		<path fill="#004B8D" d="M173.8,179.3c0-0.1,0-0.3,0-0.5l0.9-4.2h-1.2l0.3-1.4h1.2l0.4-2h1.6l-0.4,2h1.5l-0.3,1.4h-1.5l-0.8,3.8
			c0,0.1,0,0.2,0,0.3c0,0.4,0.2,0.7,0.7,0.7c0.2,0,0.5-0.1,0.6-0.2l0.1,1.3c-0.3,0.2-0.7,0.3-1.2,0.3
			C174.6,180.7,173.8,180.3,173.8,179.3z"/>
		<path fill="#004B8D" d="M183.3,180.6l1-4.6c0-0.1,0.1-0.4,0.1-0.5c0-0.7-0.6-1.1-1.4-1.1c-0.7,0-1.5,0.5-2,1l-1.1,5.1h-1.6
			l2.2-10.1h1.6l-0.8,3.8c0.6-0.6,1.4-1.2,2.5-1.2c1.4,0,2.3,0.7,2.3,1.9c0,0.1,0,0.5-0.1,0.6l-1.1,5.1H183.3z"/>
		<path fill="#004B8D" d="M187.6,177.5c0-2.4,1.8-4.4,4.2-4.4c1.9,0,3.2,1.3,3.2,3.3c0,0.4-0.1,0.9-0.1,1.1h-5.7c0,0,0,0.2,0,0.3
			c0,0.8,0.7,1.8,2.2,1.8c0.7,0,1.4-0.2,2-0.6l0.5,1.1c-0.7,0.5-1.7,0.8-2.6,0.8C189,180.7,187.6,179.5,187.6,177.5z M193.5,176.3
			c0,0,0-0.2,0-0.2c0-0.9-0.6-1.7-1.9-1.7c-1.2,0-2.1,0.9-2.3,1.9H193.5z"/>
		<path fill="#004B8D" d="M200.6,180.6l1.3-6h-1.2l0.3-1.4h1.2l0.1-0.4c0.3-1.4,1.1-2.5,2.7-2.5c0.8,0,1.3,0.2,1.8,0.7l-0.8,1
			c-0.2-0.2-0.5-0.3-0.9-0.3c-0.7,0-1,0.4-1.2,1.2l-0.1,0.4h1.5l-0.3,1.4h-1.5l-1.3,6H200.6z"/>
		<path fill="#004B8D" d="M208.5,173.2l-1,4.6c0,0.1-0.1,0.3-0.1,0.5c0,0.7,0.6,1.1,1.4,1.1c0.7,0,1.5-0.5,2-1l1.1-5.1h1.6l-1.6,7.4
			h-1.6l0.2-1c-0.6,0.6-1.4,1.2-2.5,1.2c-1.4,0-2.2-0.7-2.2-1.9c0-0.1,0-0.5,0.1-0.6l1.1-5.1H208.5z"/>
		<path fill="#004B8D" d="M214.8,179.3c0-0.1,0-0.3,0-0.5l0.9-4.2h-1.2l0.3-1.4h1.2l0.4-2h1.6l-0.4,2h1.5l-0.3,1.4h-1.5l-0.8,3.8
			c0,0.1,0,0.2,0,0.3c0,0.4,0.2,0.7,0.7,0.7c0.2,0,0.5-0.1,0.6-0.2l0.1,1.3c-0.3,0.2-0.7,0.3-1.2,0.3
			C215.6,180.7,214.8,180.3,214.8,179.3z"/>
		<path fill="#004B8D" d="M222.6,173.2l-1,4.6c0,0.1-0.1,0.3-0.1,0.5c0,0.7,0.6,1.1,1.4,1.1c0.7,0,1.5-0.5,2-1l1.1-5.1h1.6l-1.6,7.4
			h-1.6l0.2-1c-0.6,0.6-1.4,1.2-2.5,1.2c-1.4,0-2.3-0.7-2.3-1.9c0-0.1,0-0.5,0.1-0.6l1.1-5.1H222.6z"/>
		<path fill="#004B8D" d="M228.3,180.6l1.6-7.4h1.6l-0.2,1c0.7-0.8,1.5-1.2,2.7-1.2l-0.3,1.6c-0.1,0-0.4-0.1-0.7-0.1
			c-0.8,0-1.5,0.5-1.9,1l-1.1,5H228.3z"/>
		<path fill="#004B8D" d="M234.1,177.5c0-2.4,1.8-4.4,4.2-4.4c1.9,0,3.2,1.3,3.2,3.3c0,0.4-0.1,0.9-0.1,1.1h-5.7c0,0,0,0.2,0,0.3
			c0,0.8,0.7,1.8,2.2,1.8c0.7,0,1.4-0.2,2-0.6l0.5,1.1c-0.7,0.5-1.7,0.8-2.6,0.8C235.6,180.7,234.1,179.5,234.1,177.5z M240.1,176.3
			c0,0,0-0.2,0-0.2c0-0.9-0.6-1.7-1.9-1.7c-1.2,0-2.1,0.9-2.3,1.9H240.1z"/>
		<path fill="#004B8D" d="M247.1,177.4c0-2.3,1.7-4.4,4.2-4.4c2.2,0,3.5,1.4,3.5,3.3c0,2.3-1.8,4.4-4.2,4.4
			C248.4,180.7,247.1,179.4,247.1,177.4z M253.2,176.4c0-1.2-0.7-2-1.9-2c-1.5,0-2.5,1.4-2.5,2.9c0,1.2,0.7,2,1.9,2
			C252.1,179.3,253.2,177.9,253.2,176.4z"/>
		<path fill="#004B8D" d="M256.2,180.6l1.3-6h-1.2l0.3-1.4h1.2l0.1-0.4c0.3-1.4,1.1-2.5,2.7-2.5c0.8,0,1.3,0.2,1.8,0.7l-0.8,1
			c-0.2-0.2-0.5-0.3-0.9-0.3c-0.7,0-1,0.4-1.2,1.2l-0.1,0.4h1.5l-0.3,1.4h-1.5l-1.3,6H256.2z"/>
		<path fill="#004B8D" d="M270,180.6l1-4.6c0-0.1,0.1-0.4,0.1-0.5c0-0.7-0.6-1.1-1.4-1.1c-0.7,0-1.5,0.5-2,1l-1.1,5.1h-1.6l2.2-10.1
			h1.6l-0.8,3.8c0.6-0.6,1.4-1.2,2.5-1.2c1.4,0,2.3,0.7,2.3,1.9c0,0.1,0,0.5-0.1,0.6l-1.1,5.1H270z"/>
		<path fill="#004B8D" d="M274.3,177.5c0-2.4,1.8-4.4,4.2-4.4c1.9,0,3.2,1.3,3.2,3.3c0,0.4-0.1,0.9-0.1,1.1h-5.7c0,0,0,0.2,0,0.3
			c0,0.8,0.7,1.8,2.2,1.8c0.7,0,1.4-0.2,2-0.6l0.5,1.1c-0.7,0.5-1.7,0.8-2.6,0.8C275.7,180.7,274.3,179.5,274.3,177.5z M280.3,176.3
			c0,0,0-0.2,0-0.2c0-0.9-0.6-1.7-1.9-1.7c-1.2,0-2.1,0.9-2.3,1.9H280.3z"/>
		<path fill="#004B8D" d="M289.3,174.3l0.2-1.1h1.6l-1.6,7.4H288l0.2-1c-0.6,0.7-1.4,1.2-2.3,1.2c-1.7,0-2.8-1.1-2.8-3
			c0-2.3,1.4-4.7,3.9-4.7C288,173,288.9,173.5,289.3,174.3z M284.7,177.4c0,1.2,0.7,1.9,1.8,1.9c0.8,0,1.5-0.5,1.9-1l0.6-2.8
			c-0.3-0.6-1-1-1.9-1C285.7,174.5,284.7,175.9,284.7,177.4z"/>
		<path fill="#004B8D" d="M291.9,180.6l2.2-10.1h1.6l-2.2,10.1H291.9z"/>
		<path fill="#004B8D" d="M296.6,179.3c0-0.1,0-0.3,0-0.5l0.9-4.2h-1.2l0.3-1.4h1.2l0.4-2h1.6l-0.4,2h1.5l-0.3,1.4h-1.5l-0.8,3.8
			c0,0.1,0,0.2,0,0.3c0,0.4,0.2,0.7,0.7,0.7c0.2,0,0.5-0.1,0.6-0.2l0.1,1.3c-0.3,0.2-0.7,0.3-1.2,0.3
			C297.3,180.7,296.6,180.3,296.6,179.3z"/>
		<path fill="#004B8D" d="M306,180.6l1-4.6c0-0.1,0.1-0.4,0.1-0.5c0-0.7-0.6-1.1-1.4-1.1c-0.7,0-1.5,0.5-2,1l-1.1,5.1H301l2.2-10.1
			h1.6l-0.8,3.8c0.6-0.6,1.4-1.2,2.5-1.2c1.4,0,2.3,0.7,2.3,1.9c0,0.1,0,0.5-0.1,0.6l-1.1,5.1H306z"/>
		<path fill="#004B8D" d="M309.9,179.8c0-0.6,0.5-1.2,1.2-1.2c0.5,0,1,0.4,1,1c0,0.6-0.5,1.1-1.2,1.1
			C310.4,180.7,309.9,180.3,309.9,179.8z"/>
	</g>
	<g>
		<g>
			<g>
				<rect x="79.6" y="107.3" fill="#004B8D" width="38.5" height="54.9"/>
			</g>
			<g>
				<g>
					<rect x="108" y="126" fill="#EE3124" width="10.1" height="3.1"/>
				</g>
				<g>
					<rect x="108" y="132.3" fill="#EE3124" width="10.1" height="3.1"/>
				</g>
				<g>
					<rect x="108" y="138.6" fill="#EE3124" width="10.1" height="3.1"/>
				</g>
			</g>
			<g>
				<polygon fill="#FFFFFF" points="107.5,152.5 94.2,152.5 94.2,141.9 84.8,141.9 84.8,125.3 94.9,125.3 94.9,115.4 107.7,115.4 
					107.7,118.2 97.7,118.2 97.7,128.1 87.6,128.1 87.6,139.2 97,139.2 97,149.8 107.5,149.8 107.5,152.5 				"/>
			</g>
			<g>
				<g>
					<path fill="#004B8D" d="M139.2,122.6c-0.1-2.4-0.2-4.9-0.3-7.4c0.6,0.1,1.3,0.1,2.1,0.2c0.8,0.1,1.6,0.1,2.6,0.1
						c0.9,0,1.8,0,2.6-0.1c0.8-0.1,1.5-0.1,2.1-0.2c-0.2,2.5-0.3,4.9-0.3,7.4c-0.1,2.4-0.1,5.2-0.1,8.4v7.7c0,3.1,0,5.9,0.1,8.4
						c0.1,2.4,0.2,4.8,0.3,7.2c-0.6-0.1-1.3-0.1-2.1-0.1h-2.6H141c-0.8,0-1.5,0-2.1,0.1c0.2-2.4,0.3-4.7,0.3-7.2
						c0.1-2.4,0.1-5.2,0.1-8.4V131C139.3,127.8,139.3,125,139.2,122.6"/>
				</g>
				<g>
					<path fill="#004B8D" d="M158.4,120c-0.1-1.8-0.1-3.4-0.2-4.7c1.1,0.2,1.9,0.3,2.6,0.3c0.6,0,1.5-0.1,2.6-0.3
						c4.1,4.6,8.2,9.1,12.3,13.5c4,4.4,8.2,9,12.4,13.5v-4.9v-5.5c0-1.9,0-3.7,0-5.5c0-1.8,0-3.5-0.1-5c0-1.5-0.1-2.8-0.1-3.9
						c-0.1-1.1-0.1-1.8-0.2-2.2c1.1,0.2,1.9,0.3,2.6,0.3c0.6,0,1.5-0.1,2.6-0.3c-0.2,3.5-0.3,6.6-0.5,9.4c-0.1,2.8-0.2,5.4-0.3,7.9
						c-0.1,2.5-0.1,4.9-0.1,7.3c0,2.4,0,5,0,7.7v6.8c-0.8-0.1-1.5-0.1-2.3-0.1c-0.8,0-1.6,0-2.2,0.1c-7.8-9.1-16.1-18.3-24.9-27.5
						c0,1.1-0.1,2.2-0.1,3.3c0,1.1,0,2.2,0,3.4v6.6c0,2.3,0,4.2,0,5.8c0,1.6,0,2.9,0.1,4c0,1.1,0.1,2,0.1,2.7c0,0.7,0.1,1.3,0.1,1.7
						c-0.5-0.1-0.9-0.1-1.4-0.1H160c-0.9,0-1.7,0-2.6,0.1c0.1-0.3,0.2-1.4,0.3-3.2c0.1-1.9,0.2-4.1,0.4-6.8c0.1-2.7,0.2-5.6,0.3-8.7
						c0.1-3.1,0.1-6.1,0.1-9C158.5,123.9,158.5,121.7,158.4,120"/>
				</g>
				<g>
					<path fill="#004B8D" d="M232.4,127c-0.6-2-1.5-3.6-2.5-5c-1.1-1.4-2.4-2.4-3.9-3.2c-1.5-0.7-3.2-1.1-5-1.1
						c-1.9,0-3.7,0.5-5.2,1.4c-1.5,0.9-2.8,2.2-3.9,3.8c-1.1,1.6-1.9,3.5-2.4,5.6c-0.6,2.1-0.8,4.4-0.8,6.9c0,3,0.3,5.6,1,7.7
						c0.6,2.1,1.5,3.8,2.6,5c1.1,1.3,2.4,2.2,3.8,2.8c1.4,0.6,3,0.9,4.5,0.9c1.7,0,3.3-0.4,4.9-1.1c1.6-0.7,2.9-1.8,4.1-3.3
						c1.2-1.5,2.1-3.4,2.8-5.6c0.7-2.3,1.1-5,1.1-8.1C233.3,131.1,233,128.9,232.4,127 M200.8,127c1-2.5,2.5-4.6,4.4-6.5
						c1.9-1.9,4.2-3.3,6.9-4.4c2.7-1.1,5.7-1.6,9-1.6c3,0,5.9,0.4,8.5,1.2c2.6,0.8,4.9,2.1,6.8,3.8c1.9,1.7,3.5,3.8,4.6,6.3
						c1.1,2.6,1.7,5.5,1.7,9c0,2.8-0.5,5.5-1.6,8c-1.1,2.5-2.6,4.6-4.5,6.5c-1.9,1.8-4.2,3.3-6.9,4.3c-2.7,1-5.6,1.5-8.8,1.5
						c-3,0-5.8-0.4-8.4-1.1c-2.6-0.7-4.9-1.9-6.9-3.6c-2-1.6-3.5-3.8-4.6-6.3c-1.1-2.6-1.7-5.6-1.7-9.2
						C199.2,132.1,199.7,129.4,200.8,127"/>
				</g>
				<g>
					<path fill="#004B8D" d="M269.7,129.3c1.9-4.9,3.5-9.5,5-14c0.9,0.2,1.8,0.3,2.5,0.3c0.7,0,1.6-0.1,2.5-0.3
						c-0.9,2.2-2.1,4.9-3.4,8.1c-1.3,3.1-2.7,6.5-4.1,10c-1.4,3.5-2.9,7.1-4.3,10.7c-1.4,3.6-2.7,7.1-3.8,10.2
						c-0.8-0.1-1.6-0.1-2.5-0.1c-0.9,0-1.7,0-2.5,0.1c-0.6-1.5-1.3-3.4-2.1-5.5c-0.8-2.2-1.7-4.5-2.6-6.9c-0.9-2.4-1.9-4.9-2.9-7.4
						c-1-2.5-2-5-3-7.4c-0.9-2.4-1.8-4.6-2.7-6.6c-0.8-2-1.6-3.8-2.2-5.2c0.9,0.1,1.7,0.1,2.6,0.2c0.9,0.1,1.7,0.1,2.5,0.1
						c0.8,0,1.7,0,2.5-0.1c0.8-0.1,1.7-0.1,2.5-0.2c0.6,2.1,1.4,4.4,2.2,6.7c0.8,2.4,1.7,4.7,2.5,7.2c0.9,2.4,1.8,4.9,2.7,7.4
						c0.9,2.5,1.8,4.9,2.7,7.3C265.9,139,267.8,134.1,269.7,129.3"/>
				</g>
				<g>
					<path fill="#004B8D" d="M292,125.9c-1,2.3-1.9,4.5-2.8,6.7c-0.9,2.2-1.7,4.5-2.6,6.8h10.4c-0.8-2.3-1.7-4.6-2.5-6.8
						C293.8,130.5,292.9,128.2,292,125.9 M312.2,154.3c-0.9-0.1-1.8-0.1-2.6-0.1h-2.4h-2.4c-0.8,0-1.6,0-2.4,0.1
						c-0.6-1.9-1.2-3.8-1.9-5.7c-0.6-1.9-1.3-3.9-2-5.8c-1.2,0-2.4-0.1-3.6-0.1c-1.2,0-2.4,0-3.6,0c-1,0-2,0-3,0c-1,0-2,0-3,0.1
						c-0.8,1.9-1.5,3.9-2.1,5.8c-0.6,1.9-1.2,3.8-1.8,5.7c-0.5-0.1-0.9-0.1-1.3-0.1h-1.3h-1.4c-0.5,0-0.9,0-1.5,0.1
						c0.5-1,1.1-2.3,1.8-4.1c0.8-1.7,1.6-3.7,2.5-5.9c0.9-2.2,1.9-4.6,2.9-7.1c1-2.5,2.1-5.1,3.1-7.6c1-2.6,2.1-5.1,3.1-7.6
						c1-2.5,1.9-4.8,2.8-7c0.4,0.1,0.7,0.1,1.1,0.2c0.3,0.1,0.7,0.1,1.1,0.1c0.4,0,0.7,0,1.1-0.1c0.3-0.1,0.7-0.1,1.1-0.2
						c1.2,3.2,2.5,6.7,3.9,10.3c1.4,3.7,2.8,7.3,4.2,10.8c1.4,3.5,2.8,6.9,4.1,10.1C309.8,149.4,311.1,152.1,312.2,154.3"/>
				</g>
			</g>
		</g>
		<path fill="#004B8D" d="M304.9,118.6c0-2.2,1.8-4.1,4-4.1c2.2,0,4,1.8,4,4.1c0,2.3-1.8,4.1-4,4.1
			C306.7,122.7,304.9,120.9,304.9,118.6z M305.6,118.6c0,1.9,1.4,3.5,3.3,3.5c1.8,0,3.3-1.6,3.3-3.5c0-1.9-1.4-3.4-3.3-3.4
			C307,115.2,305.6,116.7,305.6,118.6z M307.5,116.3h1.7c0.8,0,1.3,0.4,1.3,1.1c0,0.7-0.4,1.1-1,1.2c0.4,0.6,0.7,1.2,1.1,1.9
			l0.3,0.4c-0.2,0-0.3,0-0.5,0s-0.3,0-0.5,0l-1.2-2.1h-0.2v2.1c-0.1,0-0.3,0-0.4,0c-0.1,0-0.3,0-0.4,0V116.3z M308.3,118.6
			c0.7,0.1,1.1-0.3,1.1-1c0-0.8-0.4-0.8-0.7-0.8h-0.4V118.6z"/>
	</g>
</g>
</svg>
