<?xml version="1.0" encoding="utf-8"?>
<!-- Generator: Adobe Illustrator 18.0.0, SVG Export Plug-In . SVG Version: 6.00 Build 0)  -->
<!DOCTYPE svg PUBLIC "-//W3C//DTD SVG 1.1//EN" "http://www.w3.org/Graphics/SVG/1.1/DTD/svg11.dtd">
<svg version="1.1" id="Layer_1" xmlns="http://www.w3.org/2000/svg" xmlns:xlink="http://www.w3.org/1999/xlink" x="0px" y="0px"
	 viewBox="0 0 400 288" enable-background="new 0 0 400 288" xml:space="preserve">
<rect fill="#FFFFFF" width="400" height="295.9"/>
<g>
	<path fill="#FFD520" d="M132.4,96.1h27.6v39.6h-27.6V96.1z M156.1,100.1h-19.7v31.6h19.7V100.1z"/>
	<g>
		<path fill="#090E0A" d="M178.4,113.9h-1.7c-2.2-3.2-4.5-6.3-6.7-9.9h0v9.9h-1.9v-13.8h1.7c2.2,3.2,4.5,6.3,6.7,9.8h0v-9.8h1.9
			V113.9z"/>
		<path fill="#090E0A" d="M182.9,108.4c0.6-1.8,1.1-3.5,1.6-5.6h0c0.6,2.1,1,3.8,1.6,5.6H182.9z M183.8,100.1l-4.8,13.8h2l1.2-3.8
			h4.2l1.1,3.8h2.6l-4.4-13.8H183.8z"/>
	</g>
	<polygon fill="#090E0A" points="192.4,113.9 192.4,101.9 188.8,101.9 188.8,100.1 198.4,100.1 198.4,101.9 194.7,101.9 
		194.7,113.9 	"/>
	<rect x="199.1" y="100.1" fill="#090E0A" width="2.3" height="13.8"/>
	<g>
		<path fill="#090E0A" d="M208.8,112.1c-2.5,0-3.3-2.7-3.3-5.4c0-2.5,1-5,3.3-5c2.3,0,3.3,2.4,3.3,5
			C212.1,109.4,211.2,112.1,208.8,112.1 M208.8,114.1c3.6,0,5.8-3.2,5.8-7.3c0-3.9-2.5-6.9-5.8-6.9c-3.4,0-5.8,3.1-5.8,6.9
			C202.9,110.9,205.2,114.1,208.8,114.1"/>
		<path fill="#090E0A" d="M226.3,113.9h-1.7c-2.2-3.2-4.5-6.3-6.7-9.9h0v9.9H216v-13.8h1.7c2.2,3.2,4.5,6.3,6.7,9.8h0v-9.8h1.9
			V113.9z"/>
		<path fill="#090E0A" d="M230.8,108.4c0.5-1.8,1.1-3.5,1.6-5.6h0c0.5,2.1,1,3.8,1.6,5.6H230.8z M231.7,100.1l-4.8,13.8h2l1.2-3.8
			h4.2l1.1,3.8h2.6l-4.4-13.8H231.7z"/>
	</g>
	<polygon fill="#090E0A" points="238.8,100.1 241.1,100.1 241.1,112 245.8,112 245.8,113.9 238.8,113.9 	"/>
	<g>
		<path fill="#090E0A" d="M177,125.4v5.7c-1.3,0.5-2.6,0.8-3.9,0.8c-4.1,0-6.6-3.1-6.6-7.2c0-3.8,2.6-7,6.7-7c1.3,0,2.6,0.5,3.3,1.1
			l-0.8,1.6c-0.6-0.4-1.6-0.7-2.5-0.7c-2.5,0-4.2,2-4.2,5.1c0,3.3,2,5.2,4,5.2c0.6,0,1.2-0.1,1.7-0.3v-4.2H177z"/>
	</g>
	<polygon fill="#090E0A" points="185.4,119.8 181.5,119.8 181.5,123.5 185.3,123.5 185.3,125.4 181.5,125.4 181.5,129.8 
		186.1,129.8 186.1,131.7 179.1,131.7 179.1,117.9 185.4,117.9 	"/>
	<path fill="#090E0A" d="M192.7,130c-2.5,0-3.3-2.7-3.3-5.4c0-2.5,1-5,3.3-5c2.3,0,3.3,2.4,3.3,5C196,127.2,195.1,130,192.7,130
		 M192.7,131.9c3.6,0,5.8-3.2,5.8-7.3c0-3.9-2.5-6.9-5.8-6.9c-3.4,0-5.8,3.1-5.8,6.9C186.8,128.7,189.1,131.9,192.7,131.9"/>
	<path fill="#090E0A" d="M209.9,125.4v5.7c-1.3,0.5-2.6,0.8-3.9,0.8c-4.1,0-6.6-3.1-6.6-7.2c0-3.8,2.6-7,6.7-7
		c1.3,0,2.6,0.5,3.3,1.1l-0.8,1.6c-0.6-0.4-1.6-0.7-2.5-0.7c-2.5,0-4.2,2-4.2,5.1c0,3.3,2,5.2,4,5.2c0.6,0,1.2-0.1,1.7-0.3v-4.2
		H209.9z"/>
	<path fill="#090E0A" d="M214.4,119.8h1c1.4,0,2.2,0.8,2.2,2.2c0,1.8-1.1,2.7-2.2,2.7c-0.2,0-0.8,0-1,0.1V119.8z M220.4,131.7
		l-2.8-5.7c1.5-0.8,2.4-2.4,2.4-4.1c0-2.7-1.6-4-4.3-4H212v13.8h2.4v-5.2h1h0l2.2,5.2H220.4z"/>
	<path fill="#090E0A" d="M224.3,126.2c0.5-1.8,1.1-3.5,1.6-5.6h0c0.6,2.1,1,3.8,1.6,5.6H224.3z M225.2,117.9l-4.8,13.8h2l1.2-3.8
		h4.2l1.1,3.8h2.6l-4.4-13.8H225.2z"/>
	<path fill="#090E0A" d="M234.6,131.7h-2.4v-13.8h3.7c2.6,0,4.3,1.3,4.3,4c0,2.3-1.7,4.6-4.5,4.6h-1.1v-1.7c0.1,0,0.8,0,1-0.1
		c1.1-0.1,2.2-0.9,2.2-2.7c0-1.4-0.8-2.2-2.2-2.2h-1.1V131.7z"/>
	<polygon fill="#090E0A" points="251.2,131.7 248.8,131.7 248.8,125.1 243.9,125.1 243.9,131.7 241.6,131.7 241.6,117.9 
		243.9,117.9 243.9,123.2 248.8,123.2 248.8,118 251.2,118 	"/>
	<rect x="253.4" y="117.9" fill="#090E0A" width="2.3" height="13.8"/>
	<g>
		<path fill="#090E0A" d="M266.4,120.4c-0.6-0.4-1.5-0.8-2.4-0.8c-2.4,0-4.2,2-4.2,5.1c0,3.3,1.9,5.2,4.2,5.2c0.9,0,1.7-0.3,2.4-0.7
			l0.6,1.7c-0.7,0.5-2,0.9-3.1,0.9c-4.1,0-6.6-3.1-6.6-7.2c0-3.8,2.5-7,6.7-7c1.2,0,2.4,0.5,3.2,1.1L266.4,120.4z"/>
	</g>
	<polygon fill="#090E0A" points="100.8,147.7 115.9,177.3 130.9,149.1 139.3,185.5 134.6,185.5 129.3,162.2 129.2,162.2 
		115.9,186.9 102.6,160.8 102.5,160.8 97.2,185.5 92.4,185.5 	"/>
	<g>
		<path fill="#090E0A" d="M146.4,171.6c0,2.6-0.1,5.5,1.8,7.7c1.8,2.1,5.3,3.3,8.3,3.3c3,0,6.2-1.1,8.1-3.1c2.2-2.2,2-5.2,2-7.9
			v-21.2h4.6v22.2c0,3.8-0.3,6.7-3.6,9.6c-2.9,2.6-7,3.9-11.1,3.9c-3.9,0-7.9-1.2-10.7-3.5c-3.6-2.9-4.1-6-4.1-10v-22.2h4.6V171.6z"
			/>
		<path fill="#090E0A" d="M194.1,157.7c-1.6-2.4-3.6-3.7-7.1-3.7c-3.7,0-6.9,2.2-6.9,5.3c0,3,3.7,4.3,6.5,5.4l2.7,1
			c5.4,2,9.9,4.2,9.9,9.7c0,6-5.8,10.6-13,10.6c-6.6,0-11.6-3.6-12.9-8.9l4.5-1c0.6,3.5,3.8,6.4,8.3,6.4c4.4,0,8.5-2.8,8.5-6.7
			c0-4-3.8-5.4-7.6-6.9l-2.5-0.9c-4.8-1.8-9-3.9-9-8.8c0-5.3,5.4-8.8,11.6-8.8c4.6,0,8.5,2,10.7,5.3L194.1,157.7z"/>
	</g>
	<polygon fill="#090E0A" points="203.3,150.4 224.7,150.4 224.7,153.9 207.9,153.9 207.9,164.8 220.2,164.8 220.2,168.4 
		207.9,168.4 207.9,181.9 227.4,181.9 227.4,185.5 203.3,185.5 	"/>
	<g>
		<path fill="#090E0A" d="M233.7,171.6c0,2.6-0.1,5.5,1.8,7.7c1.8,2.1,5.3,3.3,8.3,3.3c3,0,6.2-1.1,8.1-3.1c2.2-2.2,2-5.2,2-7.9
			v-21.2h4.6v22.2c0,3.8-0.3,6.7-3.6,9.6c-2.9,2.6-7,3.9-11.1,3.9c-3.9,0-7.9-1.2-10.7-3.5c-3.6-2.9-4.1-6-4.1-10v-22.2h4.6V171.6z"
			/>
	</g>
	<polygon fill="#090E0A" points="268.7,149.1 283.7,177.3 298.8,147.7 307.2,185.5 302.5,185.5 297.2,160.8 297.1,160.8 
		283.7,186.9 270.5,162.2 270.3,162.2 265,185.5 260.3,185.5 	"/>
</g>
</svg>
