<?xml version="1.0" encoding="utf-8"?>
<!-- Generator: Adobe Illustrator 18.0.0, SVG Export Plug-In . SVG Version: 6.00 Build 0)  -->
<!DOCTYPE svg PUBLIC "-//W3C//DTD SVG 1.1//EN" "http://www.w3.org/Graphics/SVG/1.1/DTD/svg11.dtd">
<svg version="1.1" id="Layer_1" xmlns="http://www.w3.org/2000/svg" xmlns:xlink="http://www.w3.org/1999/xlink" x="0px" y="0px"
	 viewBox="0 0 400.5 289.3" enable-background="new 0 0 400.5 289.3" xml:space="preserve">
<rect x="-0.1" y="-0.1" fill="#FFFFFF" width="401" height="291"/>
<g>
	<g>
		<path fill="#DD5F13" d="M197.1,161.1h13.1v2.6h-10.5v8.2h10.5v2.6h-10.5v12.8h-2.6V161.1z"/>
		<path fill="#DD5F13" d="M226.8,160.5c4,0,7.3,1.3,9.9,4c2.7,2.6,4,5.9,4,9.8c0,3.8-1.3,7.1-4,9.7c-2.6,2.7-5.9,4-9.7,4
			c-3.9,0-7.1-1.3-9.8-4c-2.7-2.6-4-5.9-4-9.6c0-2.5,0.6-4.8,1.8-7c1.2-2.2,2.9-3.8,5-5C222,161.1,224.3,160.5,226.8,160.5z
			 M226.9,163c-1.9,0-3.8,0.5-5.5,1.5c-1.7,1-3.1,2.4-4.1,4.1c-1,1.7-1.5,3.6-1.5,5.7c0,3.1,1.1,5.7,3.2,7.9
			c2.2,2.1,4.8,3.2,7.8,3.2c2,0,3.9-0.5,5.6-1.5c1.7-1,3.1-2.3,4-4c1-1.7,1.4-3.6,1.4-5.7c0-2.1-0.5-3.9-1.4-5.6c-1-1.7-2.3-3-4.1-4
			C230.7,163.5,228.8,163,226.9,163z"/>
		<path fill="#DD5F13" d="M257.4,160.5c3.9,0,7.3,1.3,9.9,4c2.7,2.6,4,5.9,4,9.8c0,3.8-1.3,7.1-4,9.7c-2.7,2.7-5.9,4-9.7,4
			c-3.9,0-7.1-1.3-9.8-4c-2.7-2.6-4-5.9-4-9.6c0-2.5,0.6-4.8,1.8-7c1.2-2.2,2.9-3.8,5-5C252.6,161.1,254.9,160.5,257.4,160.5z
			 M257.5,163c-1.9,0-3.8,0.5-5.5,1.5c-1.7,1-3.1,2.4-4.1,4.1c-1,1.7-1.4,3.6-1.4,5.7c0,3.1,1.1,5.7,3.2,7.9
			c2.2,2.1,4.7,3.2,7.8,3.2c2,0,3.9-0.5,5.6-1.5c1.7-1,3.1-2.3,4-4c1-1.7,1.5-3.6,1.5-5.7c0-2.1-0.5-3.9-1.5-5.6c-1-1.7-2.3-3-4.1-4
			C261.3,163.5,259.5,163,257.5,163z"/>
		<path fill="#DD5F13" d="M275,187.3v-26.1h5.4c3.9,0,6.8,0.3,8.5,0.9c2.5,0.9,4.5,2.4,5.9,4.6c1.4,2.2,2.1,4.8,2.1,7.8
			c0,2.6-0.6,4.9-1.7,6.9c-1.1,2-2.6,3.5-4.4,4.4c-1.8,1-4.3,1.4-7.6,1.4H275z M277.5,184.8h3c3.6,0,6.1-0.2,7.5-0.7
			c2-0.6,3.5-1.8,4.6-3.5c1.1-1.7,1.7-3.7,1.7-6.1c0-2.5-0.6-4.7-1.8-6.5c-1.2-1.8-2.9-3-5.1-3.7c-1.6-0.5-4.3-0.7-8.1-0.7h-1.9
			V184.8z"/>
		<path fill="#683817" d="M100.8,163.7v-2.6h14.4v2.6h-5.9v23.6h-2.7v-23.6H100.8z"/>
		<path fill="#683817" d="M118.5,161.1h2.6v11h13.3v-11h2.6v26.1h-2.6v-12.6h-13.3v12.6h-2.6V161.1z"/>
		<path fill="#683817" d="M142.5,161.1h2.6v26.1h-2.6V161.1z"/>
		<path fill="#683817" d="M150.1,187.3v-26.1h0.6l17.4,20v-20h2.6v26.1H170l-17.3-19.8v19.8H150.1z"/>
		<path fill="#683817" d="M175.3,161.1h2.7v9.8l10.5-9.8h3.5l-12.6,11.7l13.5,14.4h-3.5L178,175.1v12.2h-2.7V161.1z"/>
		<path fill="#683817" d="M128.6,196.3l-2,1.9c-1.5-1.4-3.1-2.5-4.8-3.3c-1.7-0.7-3.4-1.1-5.1-1.1c-2,0-4,0.5-5.9,1.5
			c-1.8,1-3.3,2.4-4.3,4.1c-1,1.7-1.5,3.5-1.5,5.4c0,2,0.5,3.8,1.6,5.6c1.1,1.8,2.5,3.2,4.4,4.2c1.9,1,3.9,1.5,6.1,1.5
			c2.7,0,5-0.8,6.8-2.3c1.9-1.5,3-3.5,3.3-5.9h-8.3v-2.5h11.3c0,4-1.2,7.2-3.6,9.6c-2.4,2.4-5.6,3.6-9.5,3.6
			c-4.8,0-8.7-1.6-11.5-4.9c-2.2-2.5-3.2-5.5-3.2-8.8c0-2.5,0.6-4.8,1.9-6.9c1.2-2.1,3-3.8,5.1-5c2.2-1.2,4.6-1.8,7.4-1.8
			c2.2,0,4.3,0.4,6.2,1.2C124.9,193.2,126.8,194.5,128.6,196.3z"/>
		<path fill="#683817" d="M134,191.9h5.2c2.9,0,4.9,0.1,5.9,0.4c1.5,0.4,2.8,1.1,3.8,2.3c1,1.2,1.5,2.6,1.5,4.3c0,1.4-0.3,2.7-1,3.8
			c-0.7,1.1-1.6,1.9-2.9,2.4c-1.2,0.6-3,0.8-5.2,0.8l9.4,12.1h-3.2l-9.4-12.1h-1.5V218H134V191.9z M136.6,194.5v8.9l4.5,0.1
			c1.7,0,3-0.2,3.9-0.5c0.8-0.3,1.5-0.9,2-1.6c0.5-0.7,0.7-1.5,0.7-2.4c0-0.9-0.2-1.7-0.7-2.4c-0.5-0.7-1.1-1.2-1.9-1.5
			c-0.8-0.3-2.1-0.5-3.8-0.5H136.6z"/>
		<path fill="#683817" d="M166.5,191.3c3.9,0,7.3,1.3,9.9,4c2.7,2.6,4,5.9,4,9.8c0,3.8-1.3,7.1-4,9.7c-2.7,2.7-5.9,4-9.7,4
			c-3.9,0-7.1-1.3-9.8-4c-2.7-2.6-4-5.9-4-9.6c0-2.5,0.6-4.8,1.8-7c1.2-2.2,2.9-3.8,5-5.1C161.8,191.9,164,191.3,166.5,191.3z
			 M166.6,193.8c-1.9,0-3.8,0.5-5.5,1.5c-1.7,1-3.1,2.4-4.1,4.1c-1,1.7-1.5,3.6-1.5,5.7c0,3.1,1.1,5.7,3.3,7.9
			c2.1,2.1,4.7,3.2,7.8,3.2c2,0,3.9-0.5,5.6-1.5c1.7-1,3.1-2.3,4-4c1-1.7,1.5-3.6,1.5-5.7c0-2.1-0.5-4-1.5-5.6c-1-1.7-2.3-3-4.1-4
			C170.4,194.3,168.6,193.8,166.6,193.8z"/>
		<path fill="#683817" d="M183.9,191.9h2.6v15.8c0,1.9,0,3,0.1,3.5c0.1,1,0.4,1.9,0.9,2.6c0.5,0.7,1.2,1.3,2.2,1.7
			c1,0.5,2,0.7,3,0.7c0.9,0,1.7-0.2,2.5-0.5c0.8-0.4,1.4-0.9,2-1.5c0.5-0.7,0.9-1.4,1.2-2.4c0.2-0.7,0.3-2,0.3-4.1v-15.8h2.6v15.8
			c0,2.3-0.2,4.2-0.7,5.6c-0.5,1.4-1.4,2.7-2.7,3.8c-1.4,1.1-3,1.6-5,1.6c-2.1,0-3.9-0.5-5.4-1.5c-1.5-1-2.5-2.3-3-4
			c-0.3-1-0.5-2.9-0.5-5.5V191.9z"/>
		<path fill="#683817" d="M205.3,191.9h5.2c3,0,5,0.1,6,0.4c1.5,0.4,2.7,1.1,3.7,2.3c0.9,1.1,1.4,2.6,1.4,4.3c0,1.7-0.5,3.2-1.4,4.3
			c-0.9,1.1-2.2,1.9-3.8,2.3c-1.2,0.3-3.4,0.4-6.7,0.4h-1.9V218h-2.6V191.9z M207.9,194.5v8.9l4.4,0.1c1.8,0,3.1-0.2,3.9-0.5
			c0.8-0.3,1.5-0.8,2-1.6c0.5-0.7,0.7-1.5,0.7-2.4c0-0.9-0.3-1.7-0.7-2.4c-0.5-0.7-1.1-1.2-1.9-1.6c-0.8-0.3-2.1-0.5-3.8-0.5H207.9z
			"/>
		<g>
			<path fill="#683817" d="M107.1,119.2c-2.5-22.9,9.4-39.7,19.7-45.4v-5.1C114.4,74.5,99,93,102.3,120.9
				c2.5,20.9,16,27.9,24.5,30.2v-4.9C119.6,144,109.1,137.6,107.1,119.2z"/>
			<path fill="#683817" d="M141.8,68.7v5c10.3,5.6,22.5,22.4,19.9,45.5c-2,18.5-12.7,24.9-19.9,27.1v4.8c8.5-2.2,22.2-9.1,24.7-30.2
				C169.8,92.8,154.2,74.2,141.8,68.7z"/>
			<path fill="#DD5F13" d="M152.5,121.2c0,2.5-2,4.5-4.5,4.5c-2.5,0-4.5-2-4.5-4.5c0-2.5,2-4.5,4.5-4.5
				C150.5,116.7,152.5,118.7,152.5,121.2z"/>
			<path fill="#683817" d="M138.8,121.2c0,2.5-2,4.5-4.5,4.5c-2.5,0-4.5-2-4.5-4.5c0-2.5,2-4.5,4.5-4.5
				C136.8,116.7,138.8,118.7,138.8,121.2z"/>
			<path fill="#683817" d="M116.4,121.2c0-2.5,2-4.5,4.5-4.5l0,0c2.5,0,4.5,2,4.5,4.5l0,0c0,2.5-2,4.5-4.5,4.5l0,0
				C118.4,125.7,116.4,123.7,116.4,121.2L116.4,121.2z M117,121.2c0,2.1,1.7,3.9,3.9,3.9l0,0c2.2,0,3.9-1.7,3.9-3.9l0,0
				c0-2.2-1.7-3.9-3.9-3.9l0,0C118.7,117.3,117,119,117,121.2L117,121.2z"/>
		</g>
	</g>
	<g>
		<path fill="#C2A695" d="M226,94.8h2.4v16.5c0,2.5-0.2,4.3-0.6,5.3c-0.4,1-1.1,1.8-2,2.4c-0.9,0.6-2,0.9-3.3,0.9
			c-1,0-2-0.2-2.9-0.6c-1-0.4-2-1.1-3.2-2l1.3-1.9c1.3,0.9,2.3,1.5,3.2,1.9c0.6,0.2,1.1,0.4,1.6,0.4c0.7,0,1.3-0.2,1.9-0.6
			c0.6-0.4,1-1,1.2-1.7c0.2-0.7,0.3-2.1,0.3-4.1V94.8z"/>
		<path fill="#C2A695" d="M246,94.2c3.7,0,6.8,1.2,9.3,3.7c2.5,2.5,3.8,5.5,3.8,9.1c0,3.6-1.2,6.6-3.7,9.1c-2.5,2.5-5.5,3.7-9.1,3.7
			c-3.6,0-6.7-1.2-9.2-3.7c-2.5-2.5-3.8-5.5-3.8-9c0-2.4,0.6-4.5,1.7-6.5c1.1-2,2.7-3.6,4.7-4.7C241.6,94.8,243.8,94.2,246,94.2z
			 M246.2,96.6c-1.8,0-3.5,0.5-5.2,1.4c-1.6,0.9-2.9,2.2-3.8,3.8c-0.9,1.6-1.4,3.4-1.4,5.4c0,2.9,1,5.4,3,7.4c2,2,4.5,3,7.3,3
			c1.9,0,3.7-0.5,5.3-1.4c1.6-0.9,2.9-2.2,3.8-3.8c0.9-1.6,1.4-3.4,1.4-5.3c0-1.9-0.5-3.7-1.4-5.3c-0.9-1.6-2.2-2.8-3.8-3.8
			C249.7,97.1,248,96.6,246.2,96.6z"/>
		<path fill="#C2A695" d="M261.5,114.8l2.1-1.2c1.5,2.7,3.2,4,5.1,4c0.8,0,1.6-0.2,2.3-0.6c0.7-0.4,1.3-0.9,1.6-1.5
			c0.4-0.6,0.6-1.3,0.6-2c0-0.8-0.3-1.6-0.8-2.4c-0.8-1.1-2.2-2.4-4.2-3.9c-2-1.5-3.3-2.7-3.8-3.3c-0.9-1.2-1.3-2.4-1.3-3.7
			c0-1.1,0.3-2,0.8-2.9c0.5-0.9,1.2-1.6,2.2-2.1c0.9-0.5,1.9-0.8,3-0.8c1.2,0,2.2,0.3,3.2,0.9c1,0.6,2.1,1.6,3.2,3.2l-2,1.5
			c-0.9-1.2-1.7-2-2.4-2.4c-0.6-0.4-1.4-0.6-2.1-0.6c-1,0-1.8,0.3-2.4,0.9c-0.6,0.6-0.9,1.3-0.9,2.2c0,0.5,0.1,1,0.3,1.5
			c0.2,0.5,0.6,1,1.2,1.6c0.3,0.3,1.4,1.1,3.2,2.4c2.1,1.6,3.6,3,4.4,4.2c0.8,1.2,1.2,2.4,1.2,3.7c0,1.8-0.7,3.3-2,4.6
			c-1.3,1.3-3,2-4.9,2c-1.5,0-2.8-0.4-4-1.2C263.6,118,262.5,116.7,261.5,114.8z"/>
		<path fill="#C2A695" d="M281,94.8h14v2.4h-11.6v7.7H295v2.4h-11.5v9.6H295v2.4H281V94.8z"/>
		<path fill="#C2A695" d="M180.7,126.4l11.4,24.5h-2.6l-3.9-8.1h-10.6l-3.8,8.1h-2.7l11.6-24.5H180.7z M180.4,131.6l-4.2,8.9h8.4
			L180.4,131.6z"/>
		<path fill="#C2A695" d="M196,150.9v-24.5h0.5l16.3,18.8v-18.8h2.4v24.5h-0.5l-16.2-18.6v18.6H196z"/>
		<path fill="#C2A695" d="M221.2,150.9v-24.5h5.1c3.7,0,6.3,0.3,8,0.9c2.4,0.8,4.2,2.3,5.6,4.3c1.3,2.1,2,4.5,2,7.3
			c0,2.5-0.5,4.6-1.6,6.5c-1.1,1.9-2.4,3.2-4.1,4.1c-1.7,0.9-4.1,1.3-7.1,1.3H221.2z M223.5,148.6h2.8c3.4,0,5.7-0.2,7-0.6
			c1.8-0.6,3.3-1.7,4.3-3.2c1.1-1.6,1.6-3.5,1.6-5.7c0-2.4-0.6-4.4-1.7-6.1c-1.1-1.7-2.7-2.8-4.8-3.4c-1.5-0.5-4.1-0.7-7.6-0.7h-1.7
			V148.6z"/>
		<path fill="#C2A695" d="M246.7,126.4h4.9c2.7,0,4.6,0.1,5.5,0.3c1.5,0.3,2.6,1,3.5,2.1c0.9,1.1,1.4,2.4,1.4,4
			c0,1.3-0.3,2.5-0.9,3.5c-0.6,1-1.5,1.8-2.7,2.3c-1.2,0.5-2.8,0.8-4.8,0.8l8.8,11.4h-3l-8.8-11.4h-1.4v11.4h-2.4V126.4z
			 M249.2,128.8v8.3l4.2,0c1.6,0,2.8-0.2,3.6-0.5c0.8-0.3,1.4-0.8,1.8-1.5c0.4-0.7,0.7-1.4,0.7-2.3c0-0.8-0.2-1.6-0.7-2.2
			c-0.4-0.7-1-1.2-1.8-1.4c-0.7-0.3-1.9-0.4-3.6-0.4H249.2z"/>
		<path fill="#C2A695" d="M267.3,126.4h14v2.4h-11.6v7.7h11.5v2.4h-11.5v9.6h11.5v2.4h-13.9V126.4z"/>
		<path fill="#C2A695" d="M283,146.3l2.1-1.2c1.5,2.7,3.2,4,5.1,4c0.8,0,1.6-0.2,2.3-0.6c0.7-0.4,1.3-0.9,1.6-1.5
			c0.4-0.6,0.6-1.3,0.6-2c0-0.8-0.3-1.6-0.8-2.4c-0.8-1.1-2.2-2.4-4.2-3.9c-2-1.5-3.3-2.7-3.8-3.3c-0.9-1.2-1.3-2.4-1.3-3.7
			c0-1.1,0.3-2,0.8-2.9c0.5-0.9,1.2-1.6,2.2-2.1c0.9-0.5,1.9-0.8,3-0.8c1.2,0,2.2,0.3,3.2,0.9c1,0.6,2.1,1.6,3.2,3.2l-2,1.5
			c-0.9-1.2-1.7-2-2.4-2.4c-0.6-0.4-1.4-0.6-2.1-0.6c-1,0-1.8,0.3-2.4,0.9c-0.6,0.6-0.9,1.3-0.9,2.2c0,0.5,0.1,1,0.3,1.5
			c0.2,0.5,0.6,1,1.2,1.6c0.3,0.3,1.4,1.1,3.2,2.4c2.1,1.6,3.6,3,4.4,4.2c0.8,1.2,1.2,2.4,1.2,3.7c0,1.8-0.7,3.3-2,4.6
			c-1.3,1.3-3,2-4.9,2c-1.5,0-2.8-0.4-4-1.2C285.2,149.5,284.1,148.2,283,146.3z"/>
		<path fill="#C2A695" d="M289.3,89.8h2.6l-3.6,3.8h-1.7L289.3,89.8z"/>
		<path fill="#C2A695" d="M275.5,121.3h2.6l-3.6,3.8h-1.7L275.5,121.3z"/>
	</g>
</g>
</svg>
